<svg xmlns="http://www.w3.org/2000/svg" xmlns:xlink="http://www.w3.org/1999/xlink" xmlns:lucid="lucid" width="1460" height="1144.8"><g transform="translate(-220 -100)" lucid:page-tab-id="0_0"><path d="M669.18 265.3c1.56-2.93 5.5-5.3 8.82-5.3h106c8.84 0 16 26.86 16 60s-7.16 60-16 60H678c-3.3 0-7.26-2.37-8.82-5.3l-26.36-49.4c-1.56-2.93-1.56-7.67 0-10.6z" stroke="#5e5e5e" stroke-width="3" fill="#ccc"/><use xlink:href="#a" transform="matrix(1,0,0,1,645,265) translate(49.816111111111105 46.52916666666667)"/><use xlink:href="#b" transform="matrix(1,0,0,1,645,265) translate(42.57166666666666 76.84027777777777)"/><path d="M600 496c0-3.3 2.7-6 6-6h228c3.3 0 6 2.7 6 6v148c0 3.3-2.7 6-6 6H606c-3.3 0-6-2.7-6-6z" stroke="#5e5e5e" stroke-width="3" fill="#83bbe5"/><use xlink:href="#c" transform="matrix(1,0,0,1,605,495) translate(34.911111111111126 83.40416666666667)"/><use xlink:href="#d" transform="matrix(1,0,0,1,605,495) translate(174.17777777777778 83.40416666666667)"/><path d="M304.5 360c-19.05 0-34.5-17.9-34.5-40 0-17.67 9.34-32.58 23.84-38.04C293 230 350.5 220 373.5 240c11.5-30 69-20 69 10 34.5-10 69 30 46 80 23 40 0 90-46 70-11.5 26-57.5 26-69 0-23 20-69 10-69-40z" stroke="#5e5e5e" stroke-width="3" fill="#c1e4f7"/><use xlink:href="#e" transform="matrix(1,0,0,1,275,225) translate(23.888888888888886 99.65416666666667)"/><use xlink:href="#f" transform="matrix(1,0,0,1,275,225) translate(103.22222222222223 99.65416666666667)"/><path d="M1265 232.5V249c0 3.3 2.7 6 6 6h94.58c2.76 0 5 2.24 5 5" stroke="#5e5e5e" stroke-width="2" fill="none"/><path d="M1266 232.53h-2v-1.03h2z" fill="#5e5e5e"/><path d="M1370.58 275.26l-4.64-14.26h9.27z" stroke="#5e5e5e" stroke-width="2" fill="#5e5e5e"/><path d="M1399.67 930.98v16.6" stroke="#5e5e5e" stroke-width="2" fill="none"/><path d="M1400.67 931h-2V930h2z" fill="#5e5e5e"/><path d="M1400 962.46l-4.95-14.16 9.27-.2z" stroke="#5e5e5e" stroke-width="2" fill="#5e5e5e"/><path d="M407.5 791.82h-14.62c-1.6 0-2.88-1.3-2.88-2.87v-2.88" stroke="#5e5e5e" stroke-width="2" fill="none"/><path d="M408.5 792.82h-1.03v-2h1.03z" fill="#5e5e5e"/><path d="M374.74 786.07l14.26-4.64v9.27z" stroke="#5e5e5e" stroke-width="2" fill="#5e5e5e"/><path d="M1138.4 135c0-8.28 6.73-15 15-15H1645c8.28 0 15 6.72 15 15v624.75c0 8.28-6.72 15-15 15h-491.6c-8.27 0-15-6.72-15-15z" stroke="#5e5e5e" stroke-width="2" fill="#7cd9b8"/><use xlink:href="#g" transform="matrix(1,0,0,1,1143.4117647058824,125) translate(36.01 29.568)"/><use xlink:href="#h" transform="matrix(1,0,0,1,1143.4117647058824,125) translate(114.21800000000002 29.568)"/><use xlink:href="#i" transform="matrix(1,0,0,1,1143.4117647058824,125) translate(156.82066666666668 29.568)"/><use xlink:href="#j" transform="matrix(1,0,0,1,1143.4117647058824,125) translate(251.96733333333339 29.568)"/><use xlink:href="#k" transform="matrix(1,0,0,1,1143.4117647058824,125) translate(316.71400000000006 29.568)"/><path d="M1185 196c0-3.3 2.7-6 6-6h148c3.3 0 6 2.7 6 6v28c0 3.3-2.7 6-6 6h-148c-3.3 0-6-2.7-6-6z" stroke="#000" stroke-width="3" fill="#7cd9b8"/><use xlink:href="#l" transform="matrix(1,0,0,1,1190,195) translate(1.2888888888888914 24.341666666666665)"/><path d="M1290.58 286c0-3.3 2.68-6 6-6h148c3.3 0 6 2.7 6 6v108c0 3.3-2.7 6-6 6h-148c-3.32 0-6-2.7-6-6z" stroke="#000" stroke-width="3" fill="#7cd9b8"/><use xlink:href="#m" transform="matrix(1,0,0,1,1295.576470588235,285) translate(30.799999999999997 32.77916666666667)"/><use xlink:href="#n" transform="matrix(1,0,0,1,1295.576470588235,285) translate(3.5999999999999943 63.09027777777777)"/><use xlink:href="#o" transform="matrix(1,0,0,1,1295.576470588235,285) translate(87.66666666666667 63.09027777777777)"/><use xlink:href="#p" transform="matrix(1,0,0,1,1295.576470588235,285) translate(11.133333333333333 93.40138888888889)"/><use xlink:href="#q" transform="matrix(1,0,0,1,1295.576470588235,285) translate(114.02222222222221 93.40138888888889)"/><path d="M1453.08 340h16.2c3.32 0 6 2.7 6 6v59.3c0 2.6 2.12 4.7 4.72 4.7" stroke="#000" stroke-width="2" fill="none"/><path d="M1453.1 341h-1.02v-2h1.02z"/><path d="M1495.26 410l-14.26 4.64v-9.28z" stroke="#000" stroke-width="2"/><path d="M1453.08 340h16.2c3.32 0 6-2.7 6-6v-59.3c0-2.6 2.12-4.7 4.72-4.7" stroke="#000" stroke-width="2" fill="none"/><path d="M1453.1 341h-1.02v-2h1.02z"/><path d="M1495.26 270l-14.26 4.64v-9.28z" stroke="#000" stroke-width="2"/><path d="M1640 270c0 38.66-31.34 70-70 70s-70-31.34-70-70 31.34-70 70-70 70 31.34 70 70z" stroke="#000" stroke-width="3" fill="#7cd9b8"/><use xlink:href="#r" transform="matrix(1,0,0,1,1505,205) translate(33.42722222222222 42.77916666666667)"/><use xlink:href="#s" transform="matrix(1,0,0,1,1505,205) translate(53.51611111111111 42.77916666666667)"/><use xlink:href="#t" transform="matrix(1,0,0,1,1505,205) translate(25.83333333333333 73.09027777777777)"/><use xlink:href="#u" transform="matrix(1,0,0,1,1505,205) translate(35.63833333333333 103.40138888888889)"/><path d="M1640 410c0 38.66-31.34 70-70 70s-70-31.34-70-70 31.34-70 70-70 70 31.34 70 70z" stroke="#000" stroke-width="3" fill="#7cd9b8"/><use xlink:href="#v" transform="matrix(1,0,0,1,1505,345) translate(33.92722222222222 42.77916666666667)"/><use xlink:href="#s" transform="matrix(1,0,0,1,1505,345) translate(53.01611111111111 42.77916666666667)"/><use xlink:href="#t" transform="matrix(1,0,0,1,1505,345) translate(25.83333333333333 73.09027777777777)"/><use xlink:href="#u" transform="matrix(1,0,0,1,1505,345) translate(35.63833333333333 103.40138888888889)"/><path d="M751.92 780.54c.85-3.2 4.23-5.8 7.55-5.8h116c3.3 0 5.3 2.6 4.45 5.8l-28.9 108.4c-.86 3.2-4.24 5.8-7.55 5.8h-116c-3.32 0-5.3-2.6-4.46-5.8z" stroke="#5e5e5e" stroke-width="3" fill="#b391b5"/><use xlink:href="#w" transform="matrix(1,0,0,1,726.466871044559,779.7474436701134) translate(41.99388888888889 63.71666666666667)"/><path d="M734.9 834.75H580" stroke="#c92d39" stroke-width="2" fill="none"/><path d="M735.65 835.75h-.76v-2h1.28z" fill="#c92d39"/><path d="M564.74 834.75L579 830.1v9.28z" stroke="#c92d39" stroke-width="2" fill="#c92d39"/><path d="M801.47 772.25V670" stroke="#c92d39" stroke-width="2" fill="none"/><path d="M802.47 773.25h-2v-1.03h2z" fill="#c92d39"/><path d="M801.47 654.74L806.1 669h-9.27z" stroke="#c92d39" stroke-width="2" fill="#c92d39"/><path d="M868.02 834.75H964c3.3 0 6-2.7 6-6V596.53c0-3.3 2.7-6 6-6h142.9" stroke="#c92d39" stroke-width="2" fill="none"/><path d="M868.04 835.75h-1.3l.55-2h.74z" fill="#c92d39"/><path d="M1134.18 590.53l-14.27 4.64v-9.28z" stroke="#c92d39" stroke-width="2" fill="#c92d39"/><path d="M721 487.5h-2v-40.38h2zm0-64.62h-2V400h2z" fill="#5e5e5e"/><path d="M721 488.5h-2v-1.03h2zM724.64 399h-9.28l4.64-14.26z" fill="#5e5e5e"/><path d="M726 400h-12l6-18.5zm-9.26-2h6.52L720 387.97z" fill="#5e5e5e"/><path d="M721.45 470h-2v-22.88h2zm0-47.12h-2V382.5h2z" fill="#fff"/><path d="M721.45 382.53h-2v-1.03h2zM720.45 485.26L715.8 471h9.28z" fill="#fff"/><path d="M720.45 488.5l-6-18.5h12zM717.2 472l3.25 10.03L723.7 472z" fill="#fff"/><use xlink:href="#x" transform="matrix(1,0,0,1,705.5785804602797,422.87555555555554) translate(0 17.973333333333333)"/><path d="M1007.6 211h-91.47l-2.64.7-1.8 1.8-.7 2.63v303.34l-.92 3.4-2.53 2.54-3.42.93H860v-2h43.87l2.64-.7 1.8-1.8.7-2.63V215.87l.92-3.42 2.53-2.53 3.42-.92h91.73zm157.4 0h-108.37v-2H1165zM859 529.97l-14.26-4.64L859 520.7z" fill="#fff"/><path d="M860 531.35l-18.5-6.02 18.5-6zm-12.03-6.02L858 528.6v-6.53zM1180.26 210l-14.26 4.64v-9.28z" fill="#fff"/><path d="M1183.5 210l-18.5 6v-12zm-16.5 3.26l10.03-3.26-10.03-3.26z" fill="#fff"/><use xlink:href="#y" transform="matrix(1,0,0,1,1007.5964627325346,197.87555555555556) translate(0 17.973333333333333)"/><path d="M967.55 834.67l2.53 2.53.92 3.4v212.16l.7 2.64 1.8 1.78 2.63.7h143.94v2h-144.2l-3.42-.9-2.53-2.54-.92-3.42V840.88l-.7-2.64-1.8-1.78-2.63-.7h-95.85v-2h96.1z" fill="#c92d39"/><path d="M868.04 835.75h-1.3l.55-2h.74zM1135.34 1058.9l-14.27 4.63v-9.28z" fill="#c92d39"/><path d="M1138.58 1058.9l-18.5 6v-12.02zm-16.5 3.25l10.02-3.26-10.03-3.27z" fill="#c92d39"/><path d="M409.23 563.87l.7 2.64 1.8 1.8 2.63.7H580v2H414.1l-3.42-.92-2.53-2.53-.92-3.42V497.4h2zm0-90.73h-2V439.5h2zM412.86 438.5h-9.27l4.63-14.28z" fill="#fff"/><path d="M414.24 439.5H402.2l6.03-18.5zm-9.27-2h6.52l-3.27-10.04zM595.26 570L581 574.64v-9.28z" fill="#fff"/><path d="M598.5 570l-18.5 6v-12zm-16.5 3.26l10.03-3.26-10.03-3.26z" fill="#fff"/><use xlink:href="#z" transform="matrix(1,0,0,1,388.3333320061256,473.13651448732656) translate(0 17.973333333333333)"/><path d="M1596 680c24.3 0 44 17.9 44 40s-19.7 40-44 40h-132c-24.3 0-44-17.9-44-40s19.7-40 44-40z" stroke="#000" stroke-width="3" fill-opacity="0"/><use xlink:href="#A" transform="matrix(1,0,0,1,1425,684.9999999888096) translate(9.611111111111128 42.15416666666667)"/><path d="M1190 690.7c0-3.32 2.7-6 6-6h138c3.3 0 6 2.68 6 6v58.6c0 3.32-2.7 6-6 6h-138c-3.3 0-6-2.68-6-6z" stroke="#000" stroke-width="3" fill-opacity="0"/><use xlink:href="#B" transform="matrix(1,0,0,1,1195,689.6888888776984) translate(24.9 22.466666666666665)"/><use xlink:href="#C" transform="matrix(1,0,0,1,1195,689.6888888776984) translate(18.299999999999997 52.77777777777777)"/><use xlink:href="#D" transform="matrix(1,0,0,1,1195,689.6888888776984) translate(40.87777777777778 52.77777777777777)"/><use xlink:href="#E" transform="matrix(1,0,0,1,1195,689.6888888776984) translate(56.05555555555556 52.77777777777777)"/><path d="M1198.74 655.06l.7 2.64 1.8 1.77 2.63.72h57.83l3.04 1.25 1.18 2.85-1.84.77-.87-2.1-1.9-.78h-57.7l-3.4-.93-2.54-2.53-.92-3.42V232.5h2z"/><path d="M1198.74 232.53h-2v-1.03h2zM1265 679.95l-4.64-14.26h9.28z"/><path d="M1265 683.2l-6-18.5h12zm-3.26-16.5l3.26 10.02 3.26-10.03z"/><path d="M1299.4 232.5V249c0 3.3 2.7 6 6 6h60.18c2.76 0 5 2.24 5 5" stroke="#333" stroke-width="2" fill="none"/><path d="M1300.4 232.53h-2v-1.03h2z" fill="#333"/><path d="M1370.58 275.26l-4.64-14.26h9.27z" stroke="#333" stroke-width="2" fill="#333"/><path d="M240 703.28c0-3.3 2.7-6 6-6h308c3.3 0 6 2.7 6 6v148c0 3.32-2.7 6-6 6H246c-3.3 0-6-2.68-6-6z" stroke="#5e5e5e" stroke-width="3" fill="#ffeca9"/><use xlink:href="#F" transform="matrix(1,0,0,1,252,709.2836176603487) translate(0 22.466666666666665)"/><path d="M270 753.57c0-3.32 2.7-6 6-6h88c3.3 0 6 2.68 6 6v76.5c0 3.3-2.7 6-6 6h-88c-3.3 0-6-2.7-6-6z" stroke="#333" stroke-width="3" fill="#ffeca9"/><use xlink:href="#G" transform="matrix(1,0,0,1,282,759.5672353206974) translate(-2.299999999999997 39.81111111111111)"/><path d="M410 747.82c0-3.3 2.7-6 6-6h108c3.3 0 6 2.7 6 6v88c0 3.32-2.7 6-6 6H416c-3.3 0-6-2.68-6-6z" stroke="#333" stroke-width="3" fill="#ffeca9"/><use xlink:href="#H" transform="matrix(1,0,0,1,422,753.8226013249094) translate(23.988888888888887 46.21666666666667)"/><path d="M1342.5 720h57.5" stroke="#000" stroke-width="2" fill="none"/><path d="M1342.53 721h-1.03v-2h1.03z"/><path d="M1415.26 720l-14.26 4.64v-9.28z" stroke="#000" stroke-width="2"/><path d="M653.87 653v132.82c0 3.32-2.68 6-6 6h-95.75" stroke="#ccc" stroke-width="3" fill="none"/><path d="M655.37 653.04h-3v-1.54h3z" fill="#ccc"/><path d="M536.35 791.82l14.27-4.63v9.26z" stroke="#ccc" stroke-width="3" fill="#ccc"/><path d="M407.5 791.82H390" stroke="#333" stroke-width="2" fill="none"/><path d="M408.5 792.82h-1.03v-2h1.03z" fill="#333"/><path d="M374.74 791.82L389 787.2v9.26z" stroke="#333" stroke-width="2" fill="#333"/><path d="M1140.58 835c0-8.28 6.7-15 15-15H1645c8.28 0 15 6.72 15 15v374.8c0 8.28-6.72 15-15 15h-489.42c-8.3 0-15-6.72-15-15z" stroke="#000" stroke-width="4" fill="#ffbbb1"/><use xlink:href="#I" transform="matrix(1,0,0,1,1152.576470588235,832) translate(0 28.466666666666665)"/><use xlink:href="#J" transform="matrix(1,0,0,1,1152.576470588235,832) translate(67.44444444444444 28.466666666666665)"/><use xlink:href="#K" transform="matrix(1,0,0,1,1152.576470588235,832) translate(139 28.466666666666665)"/><use xlink:href="#L" transform="matrix(1,0,0,1,1152.576470588235,832) translate(188.13333333333333 28.466666666666665)"/><path d="M1316.56 900.75c0-3.32 2.7-6 6-6h154.22c3.3 0 6 2.68 6 6v21.73c0 3.3-2.7 6-6 6h-154.22c-3.3 0-6-2.7-6-6z" stroke="#000" stroke-width="3" fill="#ffbbb1"/><use xlink:href="#l" transform="matrix(1,0,0,1,1321.5605838525244,899.7474436701134) translate(4.788888888888891 22.466666666666665)"/><path d="M1218.5 982.2c0-8.28 6.7-15 15-15h333.12c8.3 0 15 6.72 15 15V1173c0 8.28-6.7 15-15 15H1233.5c-8.3 0-15-6.72-15-15z" stroke="#000" stroke-width="3" fill="#ffbbb1"/><use xlink:href="#M" transform="matrix(1,0,0,1,1230.49,979.1999999999999) translate(0 28.466666666666665)"/><use xlink:href="#N" transform="matrix(1,0,0,1,1230.49,979.1999999999999) translate(66.44444444444446 28.466666666666665)"/><use xlink:href="#O" transform="matrix(1,0,0,1,1230.49,979.1999999999999) translate(136.40000000000003 28.466666666666665)"/><use xlink:href="#P" transform="matrix(1,0,0,1,1230.49,979.1999999999999) translate(184.06666666666672 28.466666666666665)"/><path d="M1243.85 1055.37c0-3.32 2.7-6 6-6h122.52c3.3 0 6 2.68 6 6v102.93c0 3.3-2.7 6-6 6h-122.52c-3.3 0-6-2.7-6-6z" stroke="#000" stroke-width="3" fill="#ffbbb1"/><use xlink:href="#Q" transform="matrix(1,0,0,1,1255.8500899653977,1061.365591970206) translate(6.2222222222222285 22.466666666666665)"/><use xlink:href="#R" transform="matrix(1,0,0,1,1255.8500899653977,1061.365591970206) translate(10.111111111111107 52.77777777777777)"/><use xlink:href="#S" transform="matrix(1,0,0,1,1255.8500899653977,1061.365591970206) translate(51.955555555555556 52.77777777777777)"/><use xlink:href="#T" transform="matrix(1,0,0,1,1255.8500899653977,1061.365591970206) translate(43.077777777777776 83.08888888888889)"/><path d="M1423.34 1111.8c-1.84-2.74-1.84-7.2 0-9.95l28.6-42.64c1.85-2.74 6.04-4.97 9.35-4.97h58.57c3.3 0 7.5 2.23 9.34 4.98l28.62 42.65c1.84 2.75 1.84 7.2 0 9.96l-28.6 42.65c-1.85 2.75-6.04 5-9.35 5h-58.58c-3.32 0-7.5-2.25-9.35-5z" stroke="#000" stroke-width="3" fill="#ffbbb1"/><g><use xlink:href="#U" transform="matrix(1,0,0,1,1425,1059.2291565945422) translate(30.760555555555552 22.466666666666665)"/><use xlink:href="#V" transform="matrix(1,0,0,1,1425,1059.2291565945422) translate(8.727222222222219 52.77777777777777)"/><use xlink:href="#W" transform="matrix(1,0,0,1,1425,1059.2291565945422) translate(53.39388888888889 52.77777777777777)"/><use xlink:href="#X" transform="matrix(1,0,0,1,1425,1059.2291565945422) translate(45.004999999999995 83.08888888888889)"/></g><path d="M1399.67 930.48v17.17c0 .1.1.2.2.2s.2.08.2.18v1.3" stroke="#333" fill="none"/><path d="M1400.17 930.5h-1v-.52h1z" fill="#333"/><path d="M1400.06 964.08l-4.64-14.26h9.27z" stroke="#333" fill="#333"/><path d="M1391.2 967.5v-21.13M1391.2 967.5v.5" stroke="#333" fill="none"/><path d="M1391.2 931.6l4.63 14.27h-9.27z" stroke="#333" fill="#333"/><path d="M1420 1106.83h-23.75" stroke="#000" fill="none"/><path d="M1420.5 1107.33h-.5v-1h.5z"/><path d="M1381.5 1106.83l14.25-4.63v9.27z" stroke="#000"/><path d="M907.55 594.6l2.53 2.52.92 3.4V905.5l.7 2.64 1.8 1.78 2.63.7h89v2h-89.26l-3.42-.9-2.53-2.54-.92-3.4V600.8l-.7-2.64-1.8-1.78-2.63-.7H860v-2h44.13zm389 316v2H1032.9v-2zM859 599.3l-14.26-4.63 14.26-4.64z" fill="#fff"/><path d="M860 600.68l-18.5-6 18.5-6.03zm-12.03-6l10.03 3.25v-6.52zM1311.82 911.6l-14.26 4.65v-9.27z" fill="#fff"/><path d="M1315.06 911.6l-18.5 6.03V905.6zm-16.5 3.27l10.03-3.26-10.04-3.24z" fill="#fff"/><g><use xlink:href="#Y" transform="matrix(1,0,0,1,1005.1424977962407,899.4896658923357) translate(0 17.973333333333333)"/></g><path d="M1290.58 512.4c0-3.3 1.9-7.9 4.24-10.24l37.9-37.92c2.36-2.34 6.94-4.24 10.26-4.24h55.2c3.3 0 7.9 1.9 10.24 4.24l37.9 37.92c2.36 2.34 4.26 6.93 4.26 10.24v55.2c0 3.3-1.9 7.9-4.25 10.24l-37.9 37.92c-2.35 2.34-6.94 4.24-10.25 4.24h-55.2c-3.32 0-7.9-1.9-10.25-4.24l-37.9-37.92c-2.35-2.34-4.25-6.93-4.25-10.24z" stroke="#000" stroke-width="3" fill-opacity="0"/><g><use xlink:href="#Z" transform="matrix(1,0,0,1,1295.576470588235,465) translate(24.511172839506166 50.59027777777778)"/><use xlink:href="#aa" transform="matrix(1,0,0,1,1295.576470588235,465) translate(49.16666666666667 77.25694444444446)"/><use xlink:href="#ab" transform="matrix(1,0,0,1,1295.576470588235,465) translate(28.796296296296298 103.92361111111111)"/></g><path d="M1232.03 529.2l.72 2.64 1.77 1.77 2.65.73h33.4v2h-33.67l-3.4-.93-2.54-2.53-.93-3.4V423.1h2zm0-127.43h-2V250h2zM1235.67 249h-9.27l4.63-14.26z"/><path d="M1237.05 250h-12.03l6-18.5zm-9.27-2h6.5l-3.25-10.03zM1285.84 535.33l-14.27 4.63v-9.27z"/><path d="M1289.08 535.33l-18.5 6v-12.02zm-16.5 3.26l10.02-3.27-10.03-3.26z"/><g><use xlink:href="#ac" transform="matrix(1,0,0,1,1216.7134608665851,401.7676761665844) translate(0 14.222222222222223)"/></g><defs><path d="M307 5c-39 1-65-25-65-64v-540H60c-40 0-60-18-60-53s20-53 60-53h493c40 0 60 18 60 53s-20 53-60 53H371v540c1 38-26 65-64 64" id="ad"/><path d="M288 8C130 8 38-89 38-247s93-254 250-254 249 96 249 254S446 8 288 8zm-1-97c89-1 126-63 125-158 1-94-37-157-124-158-87 1-126 64-125 158-1 95 36 156 124 158" id="ae"/><path d="M451-499c37-1 63 23 63 59v388c1 35-27 59-63 58-45 0-65-31-59-81-27 49-78 82-150 83C122 8 62-59 62-194v-246c-1-36 26-60 62-59 37-1 63 23 63 59v247c0 66 23 101 87 102 70 1 115-54 115-126v-223c-1-36 26-60 62-59" id="af"/><path d="M366-4C179 41 38-60 38-244c0-183 141-290 330-246 43 13 100 34 101 83 1 26-14 49-38 49-52-7-75-48-135-45-88 1-130 63-129 157-1 93 41 156 129 156 59 2 85-39 136-46 34-1 48 49 30 78-21 27-58 42-96 54" id="ag"/><path d="M190-421c30-48 86-80 161-80 115 0 172 67 172 201v246c0 37-24 60-62 60s-63-23-63-60v-246c0-68-24-101-89-102-72-1-119 52-119 125v223c0 37-25 60-63 60S65-17 65-54v-598c-1-35 27-59 63-58 36-1 62 21 62 56v233" id="ah"/><g id="a"><use transform="matrix(0.022222222222222223,0,0,0.022222222222222223,0,0)" xlink:href="#ad"/><use transform="matrix(0.022222222222222223,0,0,0.022222222222222223,11.88888888888889,0)" xlink:href="#ae"/><use transform="matrix(0.022222222222222223,0,0,0.022222222222222223,24.666666666666668,0)" xlink:href="#af"/><use transform="matrix(0.022222222222222223,0,0,0.022222222222222223,37.53333333333333,0)" xlink:href="#ag"/><use transform="matrix(0.022222222222222223,0,0,0.022222222222222223,48.37777777777778,0)" xlink:href="#ah"/></g><path d="M138 0c-38 0-62-23-62-61v-583c0-38 24-61 62-61h198c226-2 366 128 364 352C702-128 562 2 336 0H138zm433-353c0-165-81-247-243-247H205v495h123c162 0 243-83 243-248" id="ai"/><path d="M127 6C91 6 65-16 65-54v-386c-1-38 26-59 62-59s63 21 63 59v386c1 38-27 60-63 60zm0-594c-43 1-74-26-74-67s31-67 74-66c42-1 75 25 74 66 0 41-31 68-74 67" id="aj"/><path d="M432-211C492-84 379 8 242 8 169 8 113-11 66-35c-40-21-44-96 6-99 57 11 99 53 173 47 77 15 128-76 45-99-101-32-240-34-240-161 0-159 234-190 352-113 21 13 32 31 32 53 1 24-16 47-38 47-56-10-84-52-150-48-62-10-112 63-58 94 65 37 214 37 244 103" id="ak"/><path d="M346-501c143 6 217 109 217 257C563-97 489 3 346 8c-73 0-129-34-156-83v204c0 35-26 57-62 56-36 1-64-23-63-58v-567c0-36 25-60 61-59 46 0 69 32 62 84 26-51 83-86 158-86zM313-89c85-1 126-65 125-155 1-92-39-159-125-160-87 1-126 65-125 158-1 92 39 156 125 157" id="al"/><path d="M127 6C91 6 65-16 65-54v-597c-1-38 26-59 62-59s63 21 63 59v597c1 38-27 60-63 60" id="am"/><path d="M277-501c137 0 201 67 201 204v244c0 36-24 58-60 58-42 0-65-32-59-80-20 49-71 83-138 83C122 5 46-48 46-145c0-149 151-140 313-144 4-76-16-118-89-117-63-1-114 36-168 46-36 6-54-49-32-76 37-46 126-63 207-65zM246-82c74 0 121-59 113-141-93 5-183-11-191 68-1 42 36 74 78 73" id="an"/><path d="M15-421c-33-66 81-112 112-43l140 309 139-308c20-67 138-27 105 42L238 151c-24 67-137 26-105-42l68-143" id="ao"/><g id="b"><use transform="matrix(0.022222222222222223,0,0,0.022222222222222223,0,0)" xlink:href="#ai"/><use transform="matrix(0.022222222222222223,0,0,0.022222222222222223,16.755555555555556,0)" xlink:href="#aj"/><use transform="matrix(0.022222222222222223,0,0,0.022222222222222223,22.400000000000002,0)" xlink:href="#ak"/><use transform="matrix(0.022222222222222223,0,0,0.022222222222222223,33.17777777777778,0)" xlink:href="#al"/><use transform="matrix(0.022222222222222223,0,0,0.022222222222222223,46.53333333333334,0)" xlink:href="#am"/><use transform="matrix(0.022222222222222223,0,0,0.022222222222222223,52.17777777777778,0)" xlink:href="#an"/><use transform="matrix(0.022222222222222223,0,0,0.022222222222222223,64.17777777777778,0)" xlink:href="#ao"/></g><path d="M633-497c0 117-73 185-178 202 46 12 69 37 94 75l91 139c52 64-61 126-105 58L402-225c-25-38-44-58-101-58h-98v224c1 39-24 65-63 65S75-20 76-59v-585c0-38 24-61 62-61h250c150-1 244 65 245 208zM370-382c90 0 139-28 141-112-2-85-51-110-141-111H202v223h168" id="ap"/><path d="M136-31C112 38-5-6 28-77l276-593c16-53 110-51 134 0L715-77c36 66-75 117-107 46l-60-134H196zm104-234h264L372-562" id="aq"/><path d="M595-201C600 42 215 49 63-67 28-94 36-167 82-167c49 0 87 49 131 59 97 23 258 24 255-86 0-25-12-44-36-58-51-31-209-55-265-84-65-34-111-73-111-163 0-144 123-211 273-215 106 0 197 32 251 98 18 38-10 96-54 75-65-31-102-73-197-70-80-1-146 31-147 104 0 27 12 48 35 63 49 34 207 58 263 86 64 32 113 70 115 157" id="ar"/><path d="M140 6c-39 0-65-26-64-65v-585c0-38 24-61 62-61h246c144-2 240 75 239 215 1 140-95 216-239 216H205v215c1 39-26 66-65 65zm361-495c0-77-44-116-133-116H205v232h163c89 0 133-39 133-116" id="as"/><path d="M510-364c76 20 128 80 128 172C637-63 534 0 396 0H138c-38 0-62-23-62-61v-583c0-38 24-61 62-61h248c134-2 234 59 235 184 0 81-48 135-111 157zm-12-143c4-131-172-92-296-98v197h163c89 0 133-33 133-99zM202-100c129-8 314 39 314-103s-183-98-314-105v208" id="at"/><path d="M138 0c-38 0-62-23-62-61v-583c0-38 24-61 62-61h361c36 0 61 16 61 50 0 35-25 52-61 52H202v194h277c36 0 61 16 61 51 0 34-25 50-61 50H202v206h297c36 0 61 17 61 52 0 34-25 50-61 50H138" id="au"/><path d="M20-613c-53-54 38-136 87-75l205 254 204-254c43-62 136 15 87 75L376-336v277c1 40-26 65-64 65-39 0-66-25-65-65v-277" id="av"/><g id="c"><use transform="matrix(0.022222222222222223,0,0,0.022222222222222223,0,0)" xlink:href="#ap"/><use transform="matrix(0.022222222222222223,0,0,0.022222222222222223,15.266666666666667,0)" xlink:href="#aq"/><use transform="matrix(0.022222222222222223,0,0,0.022222222222222223,31.577777777777783,0)" xlink:href="#ar"/><use transform="matrix(0.022222222222222223,0,0,0.022222222222222223,45.75555555555556,0)" xlink:href="#as"/><use transform="matrix(0.022222222222222223,0,0,0.022222222222222223,60.42222222222223,0)" xlink:href="#at"/><use transform="matrix(0.022222222222222223,0,0,0.022222222222222223,75.60000000000001,0)" xlink:href="#au"/><use transform="matrix(0.022222222222222223,0,0,0.022222222222222223,88.6888888888889,0)" xlink:href="#ap"/><use transform="matrix(0.022222222222222223,0,0,0.022222222222222223,104.13333333333334,0)" xlink:href="#ap"/><use transform="matrix(0.022222222222222223,0,0,0.022222222222222223,119.4,0)" xlink:href="#av"/></g><path d="M140 6c-38 1-65-27-64-65v-587c-1-38 26-65 64-64 39-1 65 25 65 64v587c0 38-26 66-65 65" id="aw"/><g id="d"><use transform="matrix(0.022222222222222223,0,0,0.022222222222222223,0,0)" xlink:href="#as"/><use transform="matrix(0.022222222222222223,0,0,0.022222222222222223,14.666666666666668,0)" xlink:href="#aw"/></g><path d="M391 9C173 4 54-132 54-353s119-356 337-361c95 0 172 30 227 76 37 18 28 103-18 100s-86-50-121-58c-25-6-52-13-82-13-148 1-211 100-211 256 0 188 110 294 290 244 36-7 75-54 124-58 45-4 52 75 18 100C560-26 487 9 391 9" id="ax"/><path d="M627-710c38-1 64 26 63 64v587c1 37-26 66-63 65-38 1-64-27-63-65v-247H203v247c1 38-26 66-64 65-37 1-64-28-63-65v-587c-1-38 25-65 63-64 38-1 65 26 64 64v236h361v-236c-1-38 25-65 63-64" id="ay"/><g id="e"><use transform="matrix(0.022222222222222223,0,0,0.022222222222222223,0,0)" xlink:href="#ax"/><use transform="matrix(0.022222222222222223,0,0,0.022222222222222223,15.066666666666666,0)" xlink:href="#ay"/><use transform="matrix(0.022222222222222223,0,0,0.022222222222222223,32.08888888888889,0)" xlink:href="#au"/><use transform="matrix(0.022222222222222223,0,0,0.022222222222222223,44.955555555555556,0)" xlink:href="#ar"/><use transform="matrix(0.022222222222222223,0,0,0.022222222222222223,59.13333333333333,0)" xlink:href="#ar"/></g><path d="M14-630c-36-68 84-116 115-47l230 511 230-511c25-69 145-24 112 47L424-34c-17 51-111 51-134 0" id="az"/><g id="f"><use transform="matrix(0.022222222222222223,0,0,0.022222222222222223,0,0)" xlink:href="#ar"/><use transform="matrix(0.022222222222222223,0,0,0.022222222222222223,14.177777777777779,0)" xlink:href="#au"/><use transform="matrix(0.022222222222222223,0,0,0.022222222222222223,27.26666666666667,0)" xlink:href="#ap"/><use transform="matrix(0.022222222222222223,0,0,0.022222222222222223,42.48888888888889,0)" xlink:href="#az"/><use transform="matrix(0.022222222222222223,0,0,0.022222222222222223,58.355555555555554,0)" xlink:href="#au"/><use transform="matrix(0.022222222222222223,0,0,0.022222222222222223,71.44444444444444,0)" xlink:href="#ap"/></g><path d="M702-710c37-1 63 26 62 64v592c1 36-23 60-58 60s-57-24-56-60v-412L480-144c-13 34-55 57-92 33-9-7-18-18-26-33L191-461v407c1 35-22 61-57 60-35 0-57-24-56-60v-592c-1-38 24-65 61-64 26 0 46 14 61 43l222 423 221-423c15-29 34-43 59-43" id="aA"/><path d="M15-421c-32-67 81-111 112-43l140 309 139-308c19-69 138-28 105 42L326-34c-15 50-102 48-125 0" id="aB"/><path d="M349-501c124 1 174 73 174 201v246c0 37-24 60-62 60s-63-23-63-60v-239c0-71-22-108-89-109-72-1-119 52-119 125v223c0 37-25 60-63 60S65-17 65-54v-387c0-35 26-59 63-58 44 0 66 33 59 83 30-50 86-85 162-85" id="aC"/><path d="M479-499c36-1 63 23 62 59v395c0 158-92 234-253 233-73 0-133-14-182-41-25-15-37-32-37-53-1-26 14-48 38-48 64 13 104 46 179 46 113 0 141-74 131-192-27 51-84 86-160 86C117-19 38-114 38-257c0-144 78-239 219-244 75 0 133 35 160 86-6-52 16-84 62-84zM290-111c83 0 128-60 127-146 1-87-44-147-127-147-82 0-128 61-127 147-1 85 45 146 127 146" id="aD"/><g id="g"><use transform="matrix(0.021333333333333336,0,0,0.021333333333333336,0,0)" xlink:href="#aA"/><use transform="matrix(0.021333333333333336,0,0,0.021333333333333336,17.941333333333336,0)" xlink:href="#ae"/><use transform="matrix(0.021333333333333336,0,0,0.021333333333333336,30.037333333333336,0)" xlink:href="#aB"/><use transform="matrix(0.021333333333333336,0,0,0.021333333333333336,41.62133333333334,0)" xlink:href="#aj"/><use transform="matrix(0.021333333333333336,0,0,0.021333333333333336,47.040000000000006,0)" xlink:href="#aC"/><use transform="matrix(0.021333333333333336,0,0,0.021333333333333336,59.52000000000001,0)" xlink:href="#aD"/><path d="M-1.07 2.13h80.34V3.2H-1.07z"/></g><path d="M473-710c36-1 65 23 64 58v598c1 36-26 60-62 59-46 0-69-32-62-84-26 51-83 87-158 87C112 2 38-101 38-249c0-147 74-247 217-252 74 0 130 34 157 84v-237c0-34 26-57 61-56zM288-89c87-1 126-65 125-158 1-92-38-156-124-157-86 1-127 63-126 155-1 92 39 159 125 160" id="aE"/><g id="h"><use transform="matrix(0.021333333333333336,0,0,0.021333333333333336,0,0)" xlink:href="#an"/><use transform="matrix(0.021333333333333336,0,0,0.021333333333333336,11.520000000000001,0)" xlink:href="#aC"/><use transform="matrix(0.021333333333333336,0,0,0.021333333333333336,24.000000000000004,0)" xlink:href="#aE"/><path d="M-1.07 2.13h44.74V3.2H-1.07z"/></g><path d="M452-134c24 0 39 22 38 48-2 49-69 69-114 82C188 44 32-62 38-246c3-153 88-255 238-255 141 0 215 93 218 236 0 29-13 43-38 43H161c8 87 45 133 135 134 63 4 107-36 156-46zm-65-155c-2-75-36-123-108-124-74 1-111 51-118 124h226" id="aF"/><path d="M126-499c51-1 64 40 58 96 24-58 79-88 154-96 54-6 71 58 43 90-11 14-49 18-77 20-73 6-114 51-114 125v210c1 38-27 60-63 60S65-16 65-54v-387c-1-36 26-58 61-58" id="aG"/><path d="M162 5c-36 0-63-21-63-59v-341c-51 2-111 3-106-47-5-50 55-49 106-47-3-140 78-213 215-217 46-1 71 6 73 44 7 72-118 32-142 78-18 20-23 55-21 95 58 3 141-16 141 47s-83 45-141 47v341c1 38-26 59-62 59" id="aH"/><g id="i"><use transform="matrix(0.021333333333333336,0,0,0.021333333333333336,0,0)" xlink:href="#az"/><use transform="matrix(0.021333333333333336,0,0,0.021333333333333336,13.994666666666665,0)" xlink:href="#aF"/><use transform="matrix(0.021333333333333336,0,0,0.021333333333333336,25.32266666666667,0)" xlink:href="#aG"/><use transform="matrix(0.021333333333333336,0,0,0.021333333333333336,33.49333333333334,0)" xlink:href="#aj"/><use transform="matrix(0.021333333333333336,0,0,0.021333333333333336,38.912000000000006,0)" xlink:href="#aH"/><use transform="matrix(0.021333333333333336,0,0,0.021333333333333336,46.97600000000001,0)" xlink:href="#ao"/><use transform="matrix(0.021333333333333336,0,0,0.021333333333333336,58.56000000000002,0)" xlink:href="#aj"/><use transform="matrix(0.021333333333333336,0,0,0.021333333333333336,63.97866666666668,0)" xlink:href="#aC"/><use transform="matrix(0.021333333333333336,0,0,0.021333333333333336,76.45866666666669,0)" xlink:href="#aD"/><path d="M-1.07 2.13H96.2V3.2H-1.06z"/></g><g id="j"><use transform="matrix(0.021333333333333336,0,0,0.021333333333333336,0,0)" xlink:href="#ax"/><use transform="matrix(0.021333333333333336,0,0,0.021333333333333336,14.464000000000002,0)" xlink:href="#ah"/><use transform="matrix(0.021333333333333336,0,0,0.021333333333333336,26.944000000000003,0)" xlink:href="#aF"/><use transform="matrix(0.021333333333333336,0,0,0.021333333333333336,38.272000000000006,0)" xlink:href="#ak"/><use transform="matrix(0.021333333333333336,0,0,0.021333333333333336,48.61866666666667,0)" xlink:href="#ak"/><path d="M-1.07 2.13H65.8V3.2H-1.06z"/></g><g id="k"><use transform="matrix(0.021333333333333336,0,0,0.021333333333333336,0,0)" xlink:href="#as"/><use transform="matrix(0.021333333333333336,0,0,0.021333333333333336,14.080000000000002,0)" xlink:href="#aj"/><use transform="matrix(0.021333333333333336,0,0,0.021333333333333336,19.49866666666667,0)" xlink:href="#aF"/><use transform="matrix(0.021333333333333336,0,0,0.021333333333333336,30.826666666666664,0)" xlink:href="#ag"/><use transform="matrix(0.021333333333333336,0,0,0.021333333333333336,41.23733333333334,0)" xlink:href="#aF"/><use transform="matrix(0.021333333333333336,0,0,0.021333333333333336,52.56533333333334,0)" xlink:href="#ak"/><path d="M-1.07 2.13h65.05V3.2H-1.07z"/></g><path d="M673-681c12-44 80-36 80 13v633c0 24-14 40-38 40s-36-16-36-40v-511L462-130c-17 39-62 37-82 0L162-541v506c0 24-13 40-37 40S87-11 87-35v-633c-2-48 59-54 81-13l254 487" id="aI"/><path d="M116 5C92 5 74-10 75-35v-422c-1-25 17-40 41-40s40 15 40 40v422c1 26-15 40-40 40zm0-607c-31 1-55-20-54-51 0-30 24-51 54-50 30-1 54 20 54 50 1 31-23 52-54 51" id="aJ"/><path d="M356-4C175 42 46-67 46-244c0-176 128-292 310-244 44 11 91 30 98 79 0 17-10 32-27 32-52-17-75-57-143-54-103 0-155 78-154 187-1 109 51 184 154 184 68 3 94-39 146-54 25 0 33 37 19 56-20 25-56 43-93 54" id="aK"/><path d="M116-497c45-1 39 50 38 95 27-59 83-87 162-95 41-4 52 35 33 59-10 12-40 12-61 15-82 4-132 64-132 145v243c1 26-15 40-40 40-24 0-42-15-41-40v-422c-1-24 18-40 41-40" id="aL"/><path d="M277 7C127 7 46-94 46-246s81-253 231-253 232 101 232 253S427 7 277 7zm0-67c104-1 150-75 149-186 1-109-47-185-149-186-102 1-150 77-149 186-1 110 45 185 149 186" id="aM"/><path d="M155-407c29-55 86-91 165-92 117 0 175 64 175 193v271c0 25-15 40-40 40s-41-15-41-40v-266c0-86-28-129-111-130-89-1-147 61-147 152v244c0 25-15 40-40 40S75-10 75-35v-422c0-24 16-40 41-40 44-2 40 46 39 90" id="aN"/><path d="M329-454c0 53-95 23-146 31v255c-2 82 39 107 117 109 23 1 35 13 35 32 1 36-42 33-77 30C151-7 102-57 102-172v-251C61-426-1-410-1-454c-1-46 61-30 103-33 8-57-24-154 41-153 64 0 32 96 40 153 52 8 146-23 146 33" id="aO"/><path d="M116 5C92 5 74-10 75-35v-635c-1-25 17-40 41-40 23 0 41 16 40 40v635c1 24-17 40-40 40" id="aP"/><path d="M452-113c42 11 30 58-8 78-43 22-94 41-154 42C139 8 44-92 46-245c3-150 83-249 230-254 130-1 209 96 207 230 0 26-9 38-34 38H127c6 115 60 172 163 172 71 4 110-37 162-54zm-40-170c-2-92-46-152-135-153-92 1-140 64-148 153h283" id="aQ"/><g id="l"><use transform="matrix(0.022222222222222223,0,0,0.022222222222222223,0,0)" xlink:href="#aI"/><use transform="matrix(0.022222222222222223,0,0,0.022222222222222223,18.68888888888889,0)" xlink:href="#aJ"/><use transform="matrix(0.022222222222222223,0,0,0.022222222222222223,23.844444444444445,0)" xlink:href="#aK"/><use transform="matrix(0.022222222222222223,0,0,0.022222222222222223,34.488888888888894,0)" xlink:href="#aL"/><use transform="matrix(0.022222222222222223,0,0,0.022222222222222223,42.111111111111114,0)" xlink:href="#aM"/><use transform="matrix(0.022222222222222223,0,0,0.022222222222222223,54.44444444444445,0)" xlink:href="#aK"/><use transform="matrix(0.022222222222222223,0,0,0.022222222222222223,65.0888888888889,0)" xlink:href="#aM"/><use transform="matrix(0.022222222222222223,0,0,0.022222222222222223,77.42222222222223,0)" xlink:href="#aN"/><use transform="matrix(0.022222222222222223,0,0,0.022222222222222223,90.04444444444445,0)" xlink:href="#aO"/><use transform="matrix(0.022222222222222223,0,0,0.022222222222222223,97.60000000000001,0)" xlink:href="#aL"/><use transform="matrix(0.022222222222222223,0,0,0.022222222222222223,105.22222222222223,0)" xlink:href="#aM"/><use transform="matrix(0.022222222222222223,0,0,0.022222222222222223,117.55555555555556,0)" xlink:href="#aP"/><use transform="matrix(0.022222222222222223,0,0,0.022222222222222223,122.71111111111112,0)" xlink:href="#aP"/><use transform="matrix(0.022222222222222223,0,0,0.022222222222222223,127.86666666666665,0)" xlink:href="#aQ"/><use transform="matrix(0.022222222222222223,0,0,0.022222222222222223,139.57777777777778,0)" xlink:href="#aL"/></g><path d="M129 0c-24 0-42-16-42-40v-625c0-24 18-40 42-40h195c224-1 356 128 354 352C680-130 547 2 324 0H129zm464-353c0-188-91-282-274-282H169v565h150c183 0 274-94 274-283" id="aR"/><path d="M394-362c78 21 130 77 131 171C534-17 331 46 170-15 130-30 98-51 69-75c-23-19-20-66 11-69 9 0 19 4 28 11 54 42 101 69 185 71 93 1 148-43 151-132 3-104-88-138-215-129-20 1-35-16-35-35-1-34 35-35 72-34 97 3 158-42 162-134 5-114-126-140-221-100-29 12-59 29-88 53-39 39-75-28-39-58 51-43 130-82 220-82 119-2 211 66 209 181-1 85-49 146-115 170" id="aS"/><path d="M508-69c23 0 38 12 38 34 0 23-13 35-38 35H116C78 2 67-43 91-69l241-265c52-62 89-102 95-190 9-116-124-143-220-102-29 12-61 27-88 53-41 40-75-28-39-58 51-42 131-82 221-82 120-2 212 69 208 185-4 115-49 167-118 242L191-69h317" id="aT"/><path d="M300 8C116 8 52-146 53-352c0-207 62-361 247-361s247 153 247 360S485 8 300 8zm124-140c46-81 46-361 0-442-51-89-197-90-248 0-46 82-46 360 0 442 51 91 197 91 248 0" id="aU"/><path d="M299 5c-25 0-42-17-42-42v-598H42c-23 0-38-12-38-35s15-35 38-35h513c23 0 38 12 38 35s-15 35-38 35H340v598c0 25-16 42-41 42" id="aV"/><g id="m"><use transform="matrix(0.022222222222222223,0,0,0.022222222222222223,0,0)" xlink:href="#aR"/><use transform="matrix(0.022222222222222223,0,0,0.022222222222222223,16.422222222222224,0)" xlink:href="#aI"/><use transform="matrix(0.022222222222222223,0,0,0.022222222222222223,35.111111111111114,0)" xlink:href="#aS"/><use transform="matrix(0.022222222222222223,0,0,0.022222222222222223,48.44444444444444,0)" xlink:href="#aT"/><use transform="matrix(0.022222222222222223,0,0,0.022222222222222223,61.77777777777779,0)" xlink:href="#aU"/><use transform="matrix(0.022222222222222223,0,0,0.022222222222222223,75.11111111111111,0)" xlink:href="#aV"/></g><path d="M571-191C576 46 191 51 59-75c-24-17-19-68 12-70 9 0 18 4 28 11 62 48 133 72 212 72 101 1 178-35 178-127s-93-93-177-118c-98-25-167-39-220-100-22-26-32-60-32-102-8-231 358-252 489-121 22 22 20 66-11 70-7 0-17-4-29-11-60-47-97-70-192-72-99-1-175 40-175 131 0 92 75 99 165 126 106 29 169 36 229 96 23 25 35 58 35 99" id="aW"/><path d="M320-499c143 6 216 107 216 255C536-97 463 2 320 7c-81 0-137-39-164-96v235c0 24-15 39-40 39-24 1-41-16-41-39v-603c0-24 16-40 41-40 47-2 41 49 40 94 27-57 83-96 164-96zM304-60c102-1 150-76 149-184 1-108-47-186-149-187-102 1-149 76-148 185-1 109 46 185 148 186" id="aX"/><g id="n"><use transform="matrix(0.022222222222222223,0,0,0.022222222222222223,0,0)" xlink:href="#aW"/><use transform="matrix(0.022222222222222223,0,0,0.022222222222222223,13.644444444444446,0)" xlink:href="#aO"/><use transform="matrix(0.022222222222222223,0,0,0.022222222222222223,21.200000000000003,0)" xlink:href="#aQ"/><use transform="matrix(0.022222222222222223,0,0,0.022222222222222223,32.91111111111111,0)" xlink:href="#aX"/><use transform="matrix(0.022222222222222223,0,0,0.022222222222222223,45.84444444444445,0)" xlink:href="#aX"/><use transform="matrix(0.022222222222222223,0,0,0.022222222222222223,58.77777777777779,0)" xlink:href="#aQ"/><use transform="matrix(0.022222222222222223,0,0,0.022222222222222223,70.4888888888889,0)" xlink:href="#aL"/></g><g id="o"><use transform="matrix(0.022222222222222223,0,0,0.022222222222222223,0,0)" xlink:href="#aI"/><use transform="matrix(0.022222222222222223,0,0,0.022222222222222223,18.68888888888889,0)" xlink:href="#aM"/><use transform="matrix(0.022222222222222223,0,0,0.022222222222222223,31,0)" xlink:href="#aO"/><use transform="matrix(0.022222222222222223,0,0,0.022222222222222223,38.55555555555556,0)" xlink:href="#aM"/><use transform="matrix(0.022222222222222223,0,0,0.022222222222222223,50.88888888888889,0)" xlink:href="#aL"/></g><path d="M386 8C171 4 61-135 61-353c0-217 110-356 325-360 97 0 177 34 230 83 25 18 20 67-11 70-8 0-18-4-29-11-61-45-97-70-188-72-164 1-241 117-241 290 0 210 133 337 336 275 28-11 59-29 93-56 42-39 75 29 40 59C561-29 483 8 386 8" id="aY"/><g id="p"><use transform="matrix(0.022222222222222223,0,0,0.022222222222222223,0,0)" xlink:href="#aY"/><use transform="matrix(0.022222222222222223,0,0,0.022222222222222223,14.822222222222223,0)" xlink:href="#aM"/><use transform="matrix(0.022222222222222223,0,0,0.022222222222222223,27.155555555555555,0)" xlink:href="#aN"/><use transform="matrix(0.022222222222222223,0,0,0.022222222222222223,39.777777777777786,0)" xlink:href="#aO"/><use transform="matrix(0.022222222222222223,0,0,0.022222222222222223,47.33333333333334,0)" xlink:href="#aL"/><use transform="matrix(0.022222222222222223,0,0,0.022222222222222223,54.95555555555557,0)" xlink:href="#aM"/><use transform="matrix(0.022222222222222223,0,0,0.022222222222222223,67.28888888888889,0)" xlink:href="#aP"/><use transform="matrix(0.022222222222222223,0,0,0.022222222222222223,72.44444444444444,0)" xlink:href="#aP"/><use transform="matrix(0.022222222222222223,0,0,0.022222222222222223,77.6,0)" xlink:href="#aQ"/><use transform="matrix(0.022222222222222223,0,0,0.022222222222222223,89.3111111111111,0)" xlink:href="#aL"/></g><path d="M414-482c32-42 88 13 54 52L309-249 475-62c38 34-18 93-54 52L259-195 98-10C66 31 8-22 43-62l166-187L50-430c-38-35 19-92 54-52l155 178" id="aZ"/><g id="q"><use transform="matrix(0.022222222222222223,0,0,0.022222222222222223,0,0)" xlink:href="#aZ"/><use transform="matrix(0.022222222222222223,0,0,0.022222222222222223,11.511111111111111,0)" xlink:href="#aT"/></g><path d="M540-694c28-41 91 8 59 48L371-360 610-59c35 36-27 90-59 49L323-301 94-10C66 29 3-19 35-59l240-301L48-646c-36-35 25-89 57-48l218 276" id="ba"/><use transform="matrix(0.022222222222222223,0,0,0.022222222222222223,0,0)" xlink:href="#ba" id="r"/><path d="M104-19C90 28 12-1 33-47l286-636c10-37 74-34 89 0L694-47c25 45-50 74-70 28l-71-162H176zm102-230h317L364-608" id="bb"/><path d="M416-199C474-81 366 13 239 7 161 3 90-16 52-58c-15-19-7-57 20-55 54 18 91 54 168 54 76 0 139-43 103-109-27-27-63-33-117-46-96-24-160-42-164-138-7-150 218-182 327-107 23 16 34 33 34 50 1 16-12 31-27 31-48-15-83-60-151-55-89-16-149 102-59 137 76 29 196 35 230 97" id="bc"/><g id="s"><use transform="matrix(0.022222222222222223,0,0,0.022222222222222223,0,0)" xlink:href="#bb"/><use transform="matrix(0.022222222222222223,0,0,0.022222222222222223,15.73333333333333,0)" xlink:href="#aZ"/><use transform="matrix(0.022222222222222223,0,0,0.022222222222222223,27.244444444444447,0)" xlink:href="#aJ"/><use transform="matrix(0.022222222222222223,0,0,0.022222222222222223,32.4,0)" xlink:href="#bc"/></g><g id="t"><use transform="matrix(0.022222222222222223,0,0,0.022222222222222223,0,0)" xlink:href="#aW"/><use transform="matrix(0.022222222222222223,0,0,0.022222222222222223,13.644444444444446,0)" xlink:href="#aO"/><use transform="matrix(0.022222222222222223,0,0,0.022222222222222223,21.200000000000003,0)" xlink:href="#aQ"/><use transform="matrix(0.022222222222222223,0,0,0.022222222222222223,32.91111111111111,0)" xlink:href="#aX"/><use transform="matrix(0.022222222222222223,0,0,0.022222222222222223,45.84444444444445,0)" xlink:href="#aX"/><use transform="matrix(0.022222222222222223,0,0,0.022222222222222223,58.77777777777779,0)" xlink:href="#aQ"/><use transform="matrix(0.022222222222222223,0,0,0.022222222222222223,70.4888888888889,0)" xlink:href="#aL"/></g><g id="u"><use transform="matrix(0.022222222222222223,0,0,0.022222222222222223,0,0)" xlink:href="#aI"/><use transform="matrix(0.022222222222222223,0,0,0.022222222222222223,18.68888888888889,0)" xlink:href="#aM"/><use transform="matrix(0.022222222222222223,0,0,0.022222222222222223,31,0)" xlink:href="#aO"/><use transform="matrix(0.022222222222222223,0,0,0.022222222222222223,38.55555555555556,0)" xlink:href="#aM"/><use transform="matrix(0.022222222222222223,0,0,0.022222222222222223,50.88888888888889,0)" xlink:href="#aL"/></g><path d="M16-646c-35-35 25-89 57-48l228 291 227-291c28-42 87 9 56 48L341-339v302c1 26-17 42-41 42s-42-16-41-42v-303" id="bd"/><use transform="matrix(0.022222222222222223,0,0,0.022222222222222223,0,0)" xlink:href="#bd" id="v"/><path d="M25-421c-32-66 84-113 111-42l118 305 121-302c12-48 93-48 112 0l122 303 117-305c18-68 135-29 105 41L666-34c-13 50-100 49-121 0L426-320 311-34c-13 50-101 49-122 0" id="be"/><g id="w"><use transform="matrix(0.022222222222222223,0,0,0.022222222222222223,0,0)" xlink:href="#as"/><use transform="matrix(0.022222222222222223,0,0,0.022222222222222223,14.266666666666667,0)" xlink:href="#ae"/><use transform="matrix(0.022222222222222223,0,0,0.022222222222222223,26.866666666666667,0)" xlink:href="#be"/><use transform="matrix(0.022222222222222223,0,0,0.022222222222222223,45.711111111111116,0)" xlink:href="#aF"/><use transform="matrix(0.022222222222222223,0,0,0.022222222222222223,57.511111111111106,0)" xlink:href="#aG"/></g><path fill="#e5e5e5" d="M138 0c-38 0-62-23-62-61v-583c0-38 24-61 62-61h198c226-2 366 128 364 352C702-128 562 2 336 0H138zm433-353c0-165-81-247-243-247H205v495h123c162 0 243-83 243-248" id="bf"/><path fill="#e5e5e5" d="M595-201C600 42 215 49 63-67 28-94 36-167 82-167c49 0 87 49 131 59 97 23 258 24 255-86 0-25-12-44-36-58-51-31-209-55-265-84-65-34-111-73-111-163 0-144 123-211 273-215 106 0 197 32 251 98 18 38-10 96-54 75-65-31-102-73-197-70-80-1-146 31-147 104 0 27 12 48 35 63 49 34 207 58 263 86 64 32 113 70 115 157" id="bg"/><path fill="#e5e5e5" d="M140 6c-38 1-65-27-64-65v-587c-1-38 26-65 64-64 39-1 65 25 65 64v587c0 38-26 66-65 65" id="bh"/><g id="x"><use transform="matrix(0.017777777777777778,0,0,0.017777777777777778,0,0)" xlink:href="#bf"/><use transform="matrix(0.017777777777777778,0,0,0.017777777777777778,13.404444444444444,0)" xlink:href="#bg"/><use transform="matrix(0.017777777777777778,0,0,0.017777777777777778,24.746666666666666,0)" xlink:href="#bh"/></g><path fill="#e5e5e5" d="M367 9C175 10 72-93 72-285v-361c-1-38 25-65 63-64 38-1 64 26 63 64v368c-1 117 55 184 169 184 113 0 169-68 168-184v-368c-1-38 25-65 63-64 38-1 64 26 63 64v361C662-95 558 10 367 9" id="bi"/><path fill="#e5e5e5" d="M136-31C112 38-5-6 28-77l276-593c16-53 110-51 134 0L715-77c36 66-75 117-107 46l-60-134H196zm104-234h264L372-562" id="bj"/><path fill="#e5e5e5" d="M633-497c0 117-73 185-178 202 46 12 69 37 94 75l91 139c52 64-61 126-105 58L402-225c-25-38-44-58-101-58h-98v224c1 39-24 65-63 65S75-20 76-59v-585c0-38 24-61 62-61h250c150-1 244 65 245 208zM370-382c90 0 139-28 141-112-2-85-51-110-141-111H202v223h168" id="bk"/><path fill="#e5e5e5" d="M307 5c-39 1-65-25-65-64v-540H60c-40 0-60-18-60-53s20-53 60-53h493c40 0 60 18 60 53s-20 53-60 53H371v540c1 38-26 65-64 64" id="bl"/><g id="y"><use transform="matrix(0.017777777777777778,0,0,0.017777777777777778,0,0)" xlink:href="#bi"/><use transform="matrix(0.017777777777777778,0,0,0.017777777777777778,12.942222222222222,0)" xlink:href="#bj"/><use transform="matrix(0.017777777777777778,0,0,0.017777777777777778,26.133333333333333,0)" xlink:href="#bk"/><use transform="matrix(0.017777777777777778,0,0,0.017777777777777778,38.13333333333333,0)" xlink:href="#bl"/></g><path fill="#e5e5e5" d="M39-630c-36-75 89-116 116-41l170 489 175-486c9-35 60-58 94-32 11 8 18 19 23 33l170 491 173-495c8-24 28-39 57-40 41-1 70 36 54 81L856-35c-14 54-115 54-134 0L556-506 387-35c-14 53-113 55-133 0" id="bm"/><path fill="#e5e5e5" d="M140 6c-38 1-65-27-64-65v-585c0-38 24-61 62-61h351c41 0 61 17 61 52 0 34-20 51-61 51H203v192h266c41 0 61 17 61 52 0 34-20 51-61 51H203v248c1 38-25 66-63 65" id="bn"/><g id="z"><use transform="matrix(0.017777777777777778,0,0,0.017777777777777778,0,0)" xlink:href="#bm"/><use transform="matrix(0.017777777777777778,0,0,0.017777777777777778,19.733333333333334,0)" xlink:href="#bh"/><use transform="matrix(0.017777777777777778,0,0,0.017777777777777778,24.72888888888889,0)" xlink:href="#bn"/><use transform="matrix(0.017777777777777778,0,0,0.017777777777777778,34.791111111111114,0)" xlink:href="#bh"/></g><path d="M129 0c-24 0-42-16-42-40v-625c0-24 18-40 42-40h374c23 0 38 12 38 34s-15 34-38 34H168v245h315c23 0 38 12 38 34s-15 34-38 34H168v256h335c23 0 38 11 38 34 0 22-15 34-38 34H129" id="bo"/><path d="M127 0c-22 0-41-16-40-38v-630c0-25 16-42 41-42s41 17 41 42v598h323c23 0 38 12 38 35S515 0 492 0H127" id="bp"/><path d="M613-504c0 119-75 185-187 197 41 14 61 39 85 76L625-51c32 44-40 80-67 37L424-226c-34-50-55-72-130-72H168v261c0 24-16 42-40 42-25 0-41-17-41-42v-628c0-24 18-40 42-40h248c145-1 235 62 236 201zm-80 1c-1-98-60-134-163-134H168v271h202c103 0 162-39 163-137" id="bq"/><path d="M382 8C170 8 61-136 61-352c0-218 107-361 321-361s321 143 321 360C703-137 594 8 382 8zm0-70c161-1 239-119 237-291 2-172-75-288-237-290-160 1-237 119-237 290S222-63 382-62" id="br"/><path d="M611-367c20 0 35 13 34 34v249c-1 34-9 45-35 55C558-7 473 8 399 8 177 4 61-129 61-353c0-220 115-355 331-360 98 0 177 36 231 83 39 34 2 94-39 58-58-50-98-69-191-71-167 1-248 115-246 290-1 181 79 291 254 292 62 0 118-9 169-28v-214H424c-21 1-37-12-37-32 0-21 16-32 37-32h187" id="bs"/><path d="M614-710c24 0 38 18 38 42v631c4 42-50 56-73 25L164-567v530c0 24-15 42-39 42S87-13 87-37v-631c-4-42 51-55 74-25l414 555v-530c0-24 15-42 39-42" id="bt"/><g id="A"><use transform="matrix(0.022222222222222223,0,0,0.022222222222222223,0,0)" xlink:href="#bo"/><use transform="matrix(0.022222222222222223,0,0,0.022222222222222223,12.933333333333334,0)" xlink:href="#bp"/><use transform="matrix(0.022222222222222223,0,0,0.022222222222222223,24.933333333333334,0)" xlink:href="#bo"/><use transform="matrix(0.022222222222222223,0,0,0.022222222222222223,37.77777777777778,0)" xlink:href="#aY"/><use transform="matrix(0.022222222222222223,0,0,0.022222222222222223,52.6,0)" xlink:href="#aV"/><use transform="matrix(0.022222222222222223,0,0,0.022222222222222223,65.88888888888889,0)" xlink:href="#bq"/><use transform="matrix(0.022222222222222223,0,0,0.022222222222222223,81.02222222222221,0)" xlink:href="#br"/><use transform="matrix(0.022222222222222223,0,0,0.022222222222222223,97.99999999999999,0)" xlink:href="#aI"/><use transform="matrix(0.022222222222222223,0,0,0.022222222222222223,116.68888888888887,0)" xlink:href="#bb"/><use transform="matrix(0.022222222222222223,0,0,0.022222222222222223,132.3111111111111,0)" xlink:href="#bs"/><use transform="matrix(0.022222222222222223,0,0,0.022222222222222223,148.39999999999998,0)" xlink:href="#bt"/><use transform="matrix(0.022222222222222223,0,0,0.022222222222222223,164.8222222222222,0)" xlink:href="#bo"/><use transform="matrix(0.022222222222222223,0,0,0.022222222222222223,177.48888888888885,0)" xlink:href="#aV"/></g><path d="M15-660c-20-45 54-74 74-29l258 583 257-583c14-44 93-18 72 29L389-22c-11 35-73 34-88 0" id="bu"/><path d="M458-221c45 3 114-15 113 34 3 50-69 30-113 34-8 59 24 158-41 158-64-1-32-100-40-158H81c-37 2-47-38-27-66l327-473c21-32 77-19 77 24v447zm-322 0h241v-347" id="bv"/><path d="M278-713c186 0 269 143 267 343C542-160 474 8 275 8 190 8 113-32 65-74c-24-21-21-65 10-69 9 0 19 4 29 11 58 47 114 71 169 71 144-7 192-152 189-321-27 69-99 120-191 120-136-4-220-87-220-224 0-138 89-227 227-227zm5 382c90 2 158-66 156-156 2-92-65-159-157-157-91-1-152 65-150 157-2 92 61 157 151 156" id="bw"/><g id="B"><use transform="matrix(0.022222222222222223,0,0,0.022222222222222223,0,0)" xlink:href="#bu"/><use transform="matrix(0.022222222222222223,0,0,0.022222222222222223,15.355555555555556,0)" xlink:href="#aI"/><use transform="matrix(0.022222222222222223,0,0,0.022222222222222223,34.044444444444444,0)" xlink:href="#bb"/><use transform="matrix(0.022222222222222223,0,0,0.022222222222222223,50.2,0)" xlink:href="#bv"/><use transform="matrix(0.022222222222222223,0,0,0.022222222222222223,63.53333333333334,0)" xlink:href="#aU"/><use transform="matrix(0.022222222222222223,0,0,0.022222222222222223,76.86666666666667,0)" xlink:href="#bw"/></g><path d="M631-710c25 0 40 17 40 42v631c0 25-15 42-40 42s-41-17-41-42v-286H168v286c0 25-16 42-41 42S87-12 87-37v-631c0-25 15-42 40-42s41 17 41 42v275h422v-275c0-25 16-42 41-42" id="bx"/><use transform="matrix(0.022222222222222223,0,0,0.022222222222222223,0,0)" xlink:href="#bx" id="C"/><path d="M102-233c-22 0-37-12-37-33s15-35 37-34h220c23-1 38 13 38 34 0 22-15 33-38 33H102" id="by"/><use transform="matrix(0.022222222222222223,0,0,0.022222222222222223,0,0)" xlink:href="#by" id="D"/><path d="M487-362c76 19 128 77 128 170C614-60 520 0 381 0H129c-24 0-42-16-42-40v-625c0-24 18-40 42-40h241c134-1 228 58 229 184-1 83-48 135-112 159zm-129-30c96 0 158-36 160-125 0-80-53-120-160-120H168v245h190zm15 324c102-1 160-31 162-126 0-87-54-130-162-130H168v256h205" id="bz"/><path d="M466-710c24-1 41 16 41 39v636c0 24-16 40-41 40-47 2-41-49-40-94-27 57-83 96-164 96C119 1 46-100 46-248c0-146 73-246 216-251 81 0 137 39 164 96v-268c0-24 15-39 40-39zM278-60c102-1 149-77 148-186 1-109-46-184-148-185-101 0-151 76-150 183-1 109 48 187 150 188" id="bA"/><path d="M470-497c25 0 41 16 41 40v424c0 146-76 220-222 220-71 0-131-14-178-42-24-13-36-29-36-46s10-32 27-32c58 19 105 58 186 54 95 0 143-52 143-147v-86c-26 59-85 97-167 97-140-4-218-99-218-242s78-238 218-242c81 0 139 38 166 96-1-45-7-96 40-94zM280-82c98 0 152-73 150-175 1-102-52-174-150-174s-154 72-152 174c-2 103 53 175 152 175" id="bB"/><g id="E"><use transform="matrix(0.022222222222222223,0,0,0.022222222222222223,0,0)" xlink:href="#bz"/><use transform="matrix(0.022222222222222223,0,0,0.022222222222222223,14.977777777777778,0)" xlink:href="#aL"/><use transform="matrix(0.022222222222222223,0,0,0.022222222222222223,22.822222222222223,0)" xlink:href="#aJ"/><use transform="matrix(0.022222222222222223,0,0,0.022222222222222223,27.977777777777778,0)" xlink:href="#bA"/><use transform="matrix(0.022222222222222223,0,0,0.022222222222222223,40.91111111111111,0)" xlink:href="#bB"/><use transform="matrix(0.022222222222222223,0,0,0.022222222222222223,53.93333333333334,0)" xlink:href="#aQ"/></g><g id="F"><use transform="matrix(0.022222222222222223,0,0,0.022222222222222223,0,0)" xlink:href="#ar"/><use transform="matrix(0.022222222222222223,0,0,0.022222222222222223,14.177777777777779,0)" xlink:href="#ae"/><use transform="matrix(0.022222222222222223,0,0,0.022222222222222223,26.955555555555556,0)" xlink:href="#af"/><use transform="matrix(0.022222222222222223,0,0,0.022222222222222223,39.82222222222222,0)" xlink:href="#aC"/><use transform="matrix(0.022222222222222223,0,0,0.022222222222222223,52.82222222222222,0)" xlink:href="#aE"/><path d="M-1.1 2.22h68.4v1.1H-1.1z"/></g><path d="M98-378c-27 1-37-37-20-56 41-40 118-63 196-65 122 0 183 64 183 192v272c0 24-15 40-39 40-43 2-42-44-40-88-22 53-76 90-148 90C134 4 58-47 58-140c0-84 43-113 120-130 45-10 122-14 200-13 5-93-15-151-104-149-45 0-91 12-138 37-18 11-31 17-38 17zM241-57c89-5 148-73 137-174-97 1-170-1-218 33-51 57 6 145 81 141" id="bC"/><path d="M395-483c34-39 89 20 50 55L248-252 464-64c44 31-6 92-47 57L156-232v197c1 24-17 40-40 40-24 0-42-15-41-40v-635c-1-25 17-40 41-40 23 0 41 16 40 40v406" id="bD"/><g id="G"><use transform="matrix(0.022222222222222223,0,0,0.022222222222222223,0,0)" xlink:href="#aW"/><use transform="matrix(0.022222222222222223,0,0,0.022222222222222223,13.711111111111112,0)" xlink:href="#aX"/><use transform="matrix(0.022222222222222223,0,0,0.022222222222222223,26.644444444444446,0)" xlink:href="#aQ"/><use transform="matrix(0.022222222222222223,0,0,0.022222222222222223,38.355555555555554,0)" xlink:href="#bC"/><use transform="matrix(0.022222222222222223,0,0,0.022222222222222223,50.13333333333333,0)" xlink:href="#bD"/><use transform="matrix(0.022222222222222223,0,0,0.022222222222222223,61.04444444444444,0)" xlink:href="#aQ"/><use transform="matrix(0.022222222222222223,0,0,0.022222222222222223,72.75555555555555,0)" xlink:href="#aL"/></g><path d="M455-403c25-54 85-96 162-96 108 0 162 64 162 193v271c0 25-16 40-40 40s-42-15-41-40v-269c0-82-23-125-99-127-84 0-131 64-131 152v244c1 25-17 40-41 40s-40-15-40-40v-269c-1-83-23-125-100-127-83 0-131 65-131 152v244c0 25-16 40-40 40S74-10 75-35v-422c-1-24 18-40 41-40 43-2 41 44 39 87 26-52 77-88 151-89 76 0 126 32 149 96" id="bE"/><g id="H"><use transform="matrix(0.022222222222222223,0,0,0.022222222222222223,0,0)" xlink:href="#bb"/><use transform="matrix(0.022222222222222223,0,0,0.022222222222222223,16.155555555555555,0)" xlink:href="#bE"/><use transform="matrix(0.022222222222222223,0,0,0.022222222222222223,35.08888888888889,0)" xlink:href="#aX"/></g><g id="I"><use transform="matrix(0.022222222222222223,0,0,0.022222222222222223,0,0)" xlink:href="#ax"/><use transform="matrix(0.022222222222222223,0,0,0.022222222222222223,15.066666666666666,0)" xlink:href="#ah"/><use transform="matrix(0.022222222222222223,0,0,0.022222222222222223,28.066666666666666,0)" xlink:href="#aF"/><use transform="matrix(0.022222222222222223,0,0,0.022222222222222223,39.86666666666667,0)" xlink:href="#ak"/><use transform="matrix(0.022222222222222223,0,0,0.022222222222222223,50.644444444444446,0)" xlink:href="#ak"/><path d="M-1.1 2.22h69.66v1.1H-1.1z"/></g><g id="J"><use transform="matrix(0.022222222222222223,0,0,0.022222222222222223,0,0)" xlink:href="#as"/><use transform="matrix(0.022222222222222223,0,0,0.022222222222222223,14.666666666666668,0)" xlink:href="#aj"/><use transform="matrix(0.022222222222222223,0,0,0.022222222222222223,20.311111111111114,0)" xlink:href="#aF"/><use transform="matrix(0.022222222222222223,0,0,0.022222222222222223,32.111111111111114,0)" xlink:href="#ag"/><use transform="matrix(0.022222222222222223,0,0,0.022222222222222223,42.95555555555556,0)" xlink:href="#aF"/><use transform="matrix(0.022222222222222223,0,0,0.022222222222222223,54.75555555555556,0)" xlink:href="#ak"/><path d="M-1.1 2.22h73.77v1.1H-1.1z"/></g><path d="M140 6c-38 1-65-27-64-65v-585c0-38 24-61 62-61h351c41 0 61 17 61 52 0 34-20 51-61 51H203v192h266c41 0 61 17 61 52 0 34-20 51-61 51H203v248c1 38-25 66-63 65" id="bF"/><path d="M365-442c0 64-82 44-141 47v227c-1 60 35 81 95 81 33 0 50 17 50 45 0 46-53 50-102 45C155-7 99-65 99-177v-218c-52 1-106 5-106-47s54-49 106-47v-92c0-36 26-60 63-59 36-1 63 23 62 59v92c59 3 141-17 141 47" id="bG"/><g id="K"><use transform="matrix(0.022222222222222223,0,0,0.022222222222222223,0,0)" xlink:href="#bF"/><use transform="matrix(0.022222222222222223,0,0,0.022222222222222223,12.244444444444442,0)" xlink:href="#an"/><use transform="matrix(0.022222222222222223,0,0,0.022222222222222223,24.244444444444447,0)" xlink:href="#ak"/><use transform="matrix(0.022222222222222223,0,0,0.022222222222222223,34.91111111111111,0)" xlink:href="#bG"/><path d="M-1.1 2.22h51.35v1.1H-1.1z"/></g><g id="L"><use transform="matrix(0.022222222222222223,0,0,0.022222222222222223,0,0)" xlink:href="#ar"/><use transform="matrix(0.022222222222222223,0,0,0.022222222222222223,14.177777777777779,0)" xlink:href="#ag"/><use transform="matrix(0.022222222222222223,0,0,0.022222222222222223,25.022222222222222,0)" xlink:href="#an"/><use transform="matrix(0.022222222222222223,0,0,0.022222222222222223,37.022222222222226,0)" xlink:href="#aC"/><use transform="matrix(0.022222222222222223,0,0,0.022222222222222223,50.022222222222226,0)" xlink:href="#aC"/><use transform="matrix(0.022222222222222223,0,0,0.022222222222222223,63.022222222222226,0)" xlink:href="#aj"/><use transform="matrix(0.022222222222222223,0,0,0.022222222222222223,68.66666666666667,0)" xlink:href="#aC"/><use transform="matrix(0.022222222222222223,0,0,0.022222222222222223,81.66666666666667,0)" xlink:href="#aD"/><path d="M-1.1 2.22H96.2v1.1H-1.1z"/></g><path d="M321-499c119 0 175 70 174 193v271c0 25-16 40-40 40-25 0-41-15-41-40v-269c0-83-30-126-111-127-89-1-147 61-147 152v244c0 25-15 40-40 40S75-10 75-35v-636c0-23 18-40 41-39 25 0 40 15 40 39v262c29-54 86-89 165-90" id="bH"/><g id="M"><use transform="matrix(0.022222222222222223,0,0,0.022222222222222223,0,0)" xlink:href="#aY"/><use transform="matrix(0.022222222222222223,0,0,0.022222222222222223,15.044444444444444,0)" xlink:href="#bH"/><use transform="matrix(0.022222222222222223,0,0,0.022222222222222223,27.666666666666668,0)" xlink:href="#aQ"/><use transform="matrix(0.022222222222222223,0,0,0.022222222222222223,39.37777777777778,0)" xlink:href="#bc"/><use transform="matrix(0.022222222222222223,0,0,0.022222222222222223,50.044444444444444,0)" xlink:href="#bc"/></g><path d="M128 5c-25 0-41-17-41-42v-628c0-24 18-40 42-40h237c141-1 234 70 234 207 1 136-94 209-234 209H169v252c0 25-16 42-41 42zm391-503c0-93-54-139-161-139H169v280h189c107 0 161-47 161-141" id="bI"/><g id="N"><use transform="matrix(0.022222222222222223,0,0,0.022222222222222223,0,0)" xlink:href="#bI"/><use transform="matrix(0.022222222222222223,0,0,0.022222222222222223,14.333333333333334,0)" xlink:href="#aJ"/><use transform="matrix(0.022222222222222223,0,0,0.022222222222222223,19.48888888888889,0)" xlink:href="#aQ"/><use transform="matrix(0.022222222222222223,0,0,0.022222222222222223,31.200000000000003,0)" xlink:href="#aK"/><use transform="matrix(0.022222222222222223,0,0,0.022222222222222223,41.84444444444445,0)" xlink:href="#aQ"/><use transform="matrix(0.022222222222222223,0,0,0.022222222222222223,53.55555555555556,0)" xlink:href="#bc"/></g><path d="M128 5c-25 0-41-17-41-42v-628c0-24 18-40 42-40h364c23 0 38 12 38 35 0 22-15 34-38 34H168v243h305c23 0 38 12 38 35 0 22-15 34-38 34H168v287c0 25-15 42-40 42" id="bJ"/><g id="O"><use transform="matrix(0.022222222222222223,0,0,0.022222222222222223,0,0)" xlink:href="#bJ"/><use transform="matrix(0.022222222222222223,0,0,0.022222222222222223,12.044444444444444,0)" xlink:href="#bC"/><use transform="matrix(0.022222222222222223,0,0,0.022222222222222223,23.822222222222223,0)" xlink:href="#bc"/><use transform="matrix(0.022222222222222223,0,0,0.022222222222222223,34.37777777777778,0)" xlink:href="#aO"/></g><g id="P"><use transform="matrix(0.022222222222222223,0,0,0.022222222222222223,0,0)" xlink:href="#aW"/><use transform="matrix(0.022222222222222223,0,0,0.022222222222222223,13.711111111111112,0)" xlink:href="#aK"/><use transform="matrix(0.022222222222222223,0,0,0.022222222222222223,24.355555555555558,0)" xlink:href="#bC"/><use transform="matrix(0.022222222222222223,0,0,0.022222222222222223,36.13333333333334,0)" xlink:href="#aN"/><use transform="matrix(0.022222222222222223,0,0,0.022222222222222223,48.75555555555556,0)" xlink:href="#aN"/><use transform="matrix(0.022222222222222223,0,0,0.022222222222222223,61.37777777777778,0)" xlink:href="#aJ"/><use transform="matrix(0.022222222222222223,0,0,0.022222222222222223,66.53333333333333,0)" xlink:href="#aN"/><use transform="matrix(0.022222222222222223,0,0,0.022222222222222223,79.15555555555555,0)" xlink:href="#bB"/></g><path d="M503-705c37-2 44 36 28 65L199-15c-21 49-95 10-69-38l312-583H97c-23 0-37-12-37-34 0-23 14-35 37-35h406" id="bK"/><path d="M492-69c23 0 38 12 38 34 0 23-14 35-38 35H161c-24 0-38-11-38-35 0-22 15-34 38-34h124v-536l-109 71c-37 25-71-42-35-66l152-99c29-22 74-10 74 31v599h125" id="bL"/><path d="M327-442c139 3 223 85 223 223C550-78 456 4 313 7 223 7 142-31 92-75c-23-20-20-66 11-69 9 0 19 4 28 11 51 41 100 69 180 71 97 1 159-60 158-156 1-92-62-158-155-156-61 0-110 23-148 70-18 24-67 19-67-17v-345c0-23 16-40 40-39h352c23 0 39 12 39 34s-16 34-39 34H180v251c34-33 83-56 147-56" id="bM"/><g id="Q"><use transform="matrix(0.022222222222222223,0,0,0.022222222222222223,0,0)" xlink:href="#bK"/><use transform="matrix(0.022222222222222223,0,0,0.022222222222222223,13.333333333333334,0)" xlink:href="#bv"/><use transform="matrix(0.022222222222222223,0,0,0.022222222222222223,26.666666666666668,0)" xlink:href="#bx"/><use transform="matrix(0.022222222222222223,0,0,0.022222222222222223,43.51111111111111,0)" xlink:href="#aY"/><use transform="matrix(0.022222222222222223,0,0,0.022222222222222223,58.55555555555556,0)" xlink:href="#bL"/><use transform="matrix(0.022222222222222223,0,0,0.022222222222222223,71.88888888888889,0)" xlink:href="#bM"/><use transform="matrix(0.022222222222222223,0,0,0.022222222222222223,85.22222222222221,0)" xlink:href="#bL"/></g><path d="M422-362c76 22 130 83 131 175C551-54 445 9 300 7 155 9 49-54 47-187c0-93 56-154 132-175-64-24-115-80-115-164 1-124 102-187 236-187s235 63 236 187c0 82-51 142-114 164zM145-520c1 89 61 129 155 128 94 1 154-39 155-128-1-86-62-126-155-125-93-1-154 39-155 125zm327 328c0-87-57-131-172-131s-172 44-172 131S185-61 300-61s172-44 172-131" id="bN"/><g id="R"><use transform="matrix(0.022222222222222223,0,0,0.022222222222222223,0,0)" xlink:href="#bN"/><use transform="matrix(0.022222222222222223,0,0,0.022222222222222223,13.333333333333334,0)" xlink:href="#by"/><use transform="matrix(0.022222222222222223,0,0,0.022222222222222223,22.77777777777778,0)" xlink:href="#bL"/></g><path d="M362 8C177 8 81-91 82-276v-392c0-25 16-42 41-42 24 0 40 18 40 42v399c-1 135 66 207 199 207s198-72 198-207v-399c-1-24 17-42 41-42 25 0 41 17 41 42v392C643-92 545 9 362 8" id="bO"/><g id="S"><use transform="matrix(0.022222222222222223,0,0,0.022222222222222223,0,0)" xlink:href="#aI"/><use transform="matrix(0.022222222222222223,0,0,0.022222222222222223,18.68888888888889,0)" xlink:href="#bO"/><use transform="matrix(0.022222222222222223,0,0,0.022222222222222223,34.57777777777778,0)" xlink:href="#ba"/></g><g id="T"><use transform="matrix(0.022222222222222223,0,0,0.022222222222222223,0,0)" xlink:href="#aZ"/><use transform="matrix(0.022222222222222223,0,0,0.022222222222222223,11.511111111111111,0)" xlink:href="#bN"/></g><g id="U"><use transform="matrix(0.022222222222222223,0,0,0.022222222222222223,0,0)" xlink:href="#bb"/><use transform="matrix(0.022222222222222223,0,0,0.022222222222222223,16.155555555555555,0)" xlink:href="#bL"/><use transform="matrix(0.022222222222222223,0,0,0.022222222222222223,29.488888888888884,0)" xlink:href="#bL"/><use transform="matrix(0.022222222222222223,0,0,0.022222222222222223,42.82222222222222,0)" xlink:href="#aU"/><use transform="matrix(0.022222222222222223,0,0,0.022222222222222223,56.15555555555556,0)" xlink:href="#bv"/></g><g id="V"><use transform="matrix(0.022222222222222223,0,0,0.022222222222222223,0,0)" xlink:href="#bx"/><use transform="matrix(0.022222222222222223,0,0,0.022222222222222223,16.844444444444445,0)" xlink:href="#bC"/><use transform="matrix(0.022222222222222223,0,0,0.022222222222222223,28.622222222222224,0)" xlink:href="#aP"/><use transform="matrix(0.022222222222222223,0,0,0.022222222222222223,33.77777777777778,0)" xlink:href="#aP"/></g><g id="W"><use transform="matrix(0.022222222222222223,0,0,0.022222222222222223,0,0)" xlink:href="#aW"/><use transform="matrix(0.022222222222222223,0,0,0.022222222222222223,13.711111111111112,0)" xlink:href="#aQ"/><use transform="matrix(0.022222222222222223,0,0,0.022222222222222223,25.422222222222224,0)" xlink:href="#aN"/><use transform="matrix(0.022222222222222223,0,0,0.022222222222222223,38.04444444444445,0)" xlink:href="#bc"/><use transform="matrix(0.022222222222222223,0,0,0.022222222222222223,48.71111111111112,0)" xlink:href="#aM"/><use transform="matrix(0.022222222222222223,0,0,0.022222222222222223,61.04444444444446,0)" xlink:href="#aL"/></g><path d="M329-443c136 4 220 87 220 224C549-81 460 8 322 8 136 8 53-135 55-335c3-210 71-378 270-378 85 0 162 40 210 82 24 21 21 65-10 69-9 0-19-4-29-11-58-47-114-71-169-71-144 7-192 152-189 321 27-69 99-120 191-120zM318-61c91 1 152-65 150-157 2-92-61-157-151-156-90-2-158 66-156 156-2 92 65 159 157 157" id="bP"/><g id="X"><use transform="matrix(0.022222222222222223,0,0,0.022222222222222223,0,0)" xlink:href="#ba"/><use transform="matrix(0.022222222222222223,0,0,0.022222222222222223,14.355555555555556,0)" xlink:href="#bP"/><use transform="matrix(0.022222222222222223,0,0,0.022222222222222223,27.666666666666668,0)" xlink:href="#bv"/></g><path fill="#e5e5e5" d="M177-694c157-58 350 7 344 172-6 113-45 161-114 234L234-104h264c40 0 60 17 60 51 0 35-20 53-60 53H118C58 3 50-70 85-108l228-245c44-51 76-87 81-161 7-96-104-113-184-82-39 15-71 49-117 59-45 0-55-77-19-101 31-21 64-42 103-56" id="bQ"/><path fill="#e5e5e5" d="M391 9C173 4 54-132 54-353s119-356 337-361c95 0 172 30 227 76 37 18 28 103-18 100s-86-50-121-58c-25-6-52-13-82-13-148 1-211 100-211 256 0 188 110 294 290 244 36-7 75-54 124-58 45-4 52 75 18 100C560-26 487 9 391 9" id="bR"/><g id="Y"><use transform="matrix(0.017777777777777778,0,0,0.017777777777777778,0,0)" xlink:href="#bh"/><use transform="matrix(0.017777777777777778,0,0,0.017777777777777778,4.995555555555556,0)" xlink:href="#bQ"/><use transform="matrix(0.017777777777777778,0,0,0.017777777777777778,15.68,0)" xlink:href="#bR"/></g><path fill="#333" d="M240 0l2-218c-23 76-54 145-80 218h-23L58-218 59 0H30v-248h44l77 211c21-75 51-140 76-211h43V0h-30" id="bS"/><path fill="#333" d="M63-220v92h138v28H63V0H30v-248h175v28H63" id="bT"/><path fill="#333" d="M233-177c-1 41-23 64-60 70L243 0h-38l-65-103H63V0H30v-248c88 3 205-21 203 71zM63-129c60-2 137 13 137-47 0-61-80-42-137-45v92" id="bU"/><path fill="#333" d="M212-179c-10-28-35-45-73-45-59 0-87 40-87 99 0 60 29 101 89 101 43 0 62-24 78-52l27 14C228-24 195 4 139 4 59 4 22-46 18-125c-6-104 99-153 187-111 19 9 31 26 39 46" id="bV"/><path fill="#333" d="M54-142c48-35 137-8 131 61C196 18 31 33 14-55l32-4c7 23 22 37 52 37 35-1 51-22 54-58 4-55-73-65-99-34H22l8-134h141v27H59" id="bW"/><path fill="#333" d="M101-251c82-7 93 87 43 132L82-64C71-53 59-42 53-27h129V0H18c2-99 128-94 128-182 0-28-16-43-45-43s-46 15-49 41l-32-3c6-41 34-60 81-64" id="bX"/><g id="Z"><use transform="matrix(0.06172839506172839,0,0,0.06172839506172839,0,0)" xlink:href="#bS"/><use transform="matrix(0.06172839506172839,0,0,0.06172839506172839,18.456790123456788,0)" xlink:href="#bT"/><use transform="matrix(0.06172839506172839,0,0,0.06172839506172839,31.9753086419753,0)" xlink:href="#bU"/><use transform="matrix(0.06172839506172839,0,0,0.06172839506172839,47.962962962962955,0)" xlink:href="#bV"/><use transform="matrix(0.06172839506172839,0,0,0.06172839506172839,63.9506172839506,0)" xlink:href="#bW"/><use transform="matrix(0.06172839506172839,0,0,0.06172839506172839,76.29629629629629,0)" xlink:href="#bX"/><use transform="matrix(0.06172839506172839,0,0,0.06172839506172839,88.64197530864197,0)" xlink:href="#bX"/></g><path fill="#333" d="M33 0v-248h34V0H33" id="bY"/><path fill="#333" d="M30-248c118-7 216 8 213 122C240-48 200 0 122 0H30v-248zM63-27c89 8 146-16 146-99s-60-101-146-95v194" id="bZ"/><g id="aa"><use transform="matrix(0.06172839506172839,0,0,0.06172839506172839,0,0)" xlink:href="#bU"/><use transform="matrix(0.06172839506172839,0,0,0.06172839506172839,15.987654320987653,0)" xlink:href="#bT"/><use transform="matrix(0.06172839506172839,0,0,0.06172839506172839,29.50617283950617,0)" xlink:href="#bY"/><use transform="matrix(0.06172839506172839,0,0,0.06172839506172839,35.67901234567901,0)" xlink:href="#bZ"/></g><path fill="#333" d="M30 0v-248h187v28H63v79h144v27H63v87h162V0H30" id="ca"/><path fill="#333" d="M205 0l-28-72H64L36 0H1l101-248h38L239 0h-34zm-38-99l-47-123c-12 45-31 82-46 123h93" id="cb"/><g id="ab"><use transform="matrix(0.06172839506172839,0,0,0.06172839506172839,0,0)" xlink:href="#bU"/><use transform="matrix(0.06172839506172839,0,0,0.06172839506172839,15.987654320987653,0)" xlink:href="#ca"/><use transform="matrix(0.06172839506172839,0,0,0.06172839506172839,30.80246913580247,0)" xlink:href="#cb"/><use transform="matrix(0.06172839506172839,0,0,0.06172839506172839,45.61728395061728,0)" xlink:href="#bZ"/><use transform="matrix(0.06172839506172839,0,0,0.06172839506172839,61.60493827160493,0)" xlink:href="#ca"/><use transform="matrix(0.06172839506172839,0,0,0.06172839506172839,76.41975308641975,0)" xlink:href="#bU"/></g><path fill="#333" d="M169-182c-1-43-94-46-97-3 18 66 151 10 154 114 3 95-165 93-204 36-6-8-10-19-12-30l50-8c3 46 112 56 116 5-17-69-150-10-154-114-4-87 153-88 188-35 5 8 8 18 10 28" id="cc"/><path fill="#333" d="M24-248c93 1 206-16 204 79-1 75-69 88-152 82V0H24v-248zm52 121c47 0 100 7 100-41 0-47-54-39-100-39v80" id="cd"/><path fill="#333" d="M24 0v-248h52V0H24" id="ce"/><g id="ac"><use transform="matrix(0.04938271604938272,0,0,0.04938271604938272,0,0)" xlink:href="#cc"/><use transform="matrix(0.04938271604938272,0,0,0.04938271604938272,11.851851851851853,0)" xlink:href="#cd"/><use transform="matrix(0.04938271604938272,0,0,0.04938271604938272,23.703703703703706,0)" xlink:href="#ce"/></g></defs></g></svg>