<svg xmlns="http://www.w3.org/2000/svg" xmlns:xlink="http://www.w3.org/1999/xlink" xmlns:lucid="lucid" width="1936" height="1063.33"><g transform="translate(1020 -80)" lucid:page-tab-id="0_0"><path d="M-420 466c0-3.3 2.7-6 6-6h808c3.3 0 6 2.7 6 6v651.33c0 3.32-2.7 6-6 6h-808c-3.3 0-6-2.68-6-6z" fill="#c1e4f7"/><path d="M-393.05 460h17.95m11.97 0h17.96m11.97 0h17.96m11.97 0h17.95m11.97 0h17.96m11.98 0h17.95m11.97 0h17.96m11.97 0h17.96m11.96 0h17.95m11.98 0h17.96m11.97 0h17.96m11.97 0h17.96m11.96 0H-16m12 0h17.94m11.97 0h17.97m11.97 0H73.8m11.96 0h17.96m11.97 0h17.94m11.97 0h17.97m11.97 0h17.96m11.97 0h17.95m11.97 0h17.95m11.97 0h17.95m11.97 0h17.96m11.97 0h17.96m11.97 0h17.95m11.97 0H394l3.03.82 2.15 2.15.82 3.03v8.88m0 11.84v17.77m0 11.83v17.76m0 11.84v17.76m0 11.84v17.77m0 11.85v17.76m0 11.85v17.77m0 11.84v17.76m0 11.85v17.76m0 11.84v17.77m0 11.84v17.76m0 11.84v17.77m0 11.84v17.75m0 11.85v17.76m0 11.84v17.77m0 11.84v17.77m0 11.85v17.76m0 11.84v17.76m0 11.85v17.76m0 11.83v17.77m0 11.84V1067m0 11.85v17.76m0 11.85v8.88l-.82 3.03-2.15 2.15-3.03.83h-8.98m-11.97 0H355.1m-11.97 0h-17.96m-11.97 0h-17.96m-11.97 0h-17.95m-11.97 0H235.4m-11.98 0h-17.95m-11.97 0h-17.96m-11.97 0H145.6m-11.96 0H115.7m-11.98 0H85.76m-11.97 0H55.83m-11.97 0H25.9m-11.96 0H-4m-12 0h-17.94m-11.97 0h-17.97m-11.97 0H-93.8m-11.96 0h-17.96m-11.97 0h-17.94m-11.97 0h-17.97m-11.97 0h-17.96m-11.97 0h-17.95m-11.97 0h-17.95m-11.97 0h-17.95m-11.97 0h-17.96m-11.97 0h-17.96m-11.97 0h-17.95m-11.97 0H-414l-3.03-.82-2.15-2.14-.82-3.03v-8.88m0-11.84v-17.75m0-11.85v-17.76m0-11.84v-17.77m0-11.84v-17.77m0-11.85v-17.76m0-11.84v-17.76m0-11.85V901.2m0-11.83V871.6m0-11.84V842m0-11.85V812.4m0-11.85v-17.77m0-11.84v-17.76m0-11.84v-17.77m0-11.84v-17.76m0-11.85v-17.76m0-11.84v-17.77m0-11.84v-17.75m0-11.84v-17.76m0-11.84v-17.76m0-11.85v-17.77m0-11.84V486.7m0-11.84V466l.82-3.03 2.15-2.15 3.03-.82h8.98" stroke="#0c7cba" stroke-width="6" fill="none"/><path d="M-100 526c0-3.3 2.7-6 6-6h406.07c3.32 0 6 2.7 6 6v96.23c0 3.32-2.68 6-6 6H-94c-3.3 0-6-2.68-6-6z" stroke="#000" stroke-opacity="0" stroke-width="3" fill="#fff" fill-opacity="0"/><use xlink:href="#a" transform="matrix(1,0,0,1,-95,525) translate(69.43333333333337 63.49583333333332)"/><use xlink:href="#b" transform="matrix(1,0,0,1,-95,525) translate(180.14444444444445 63.49583333333332)"/><path d="M500 816c0-3.33 2.7-6 6-6h266.3c3.33 0 6 2.67 6 6v173.53c0 3.3-2.67 6-6 6H506c-3.3 0-6-2.7-6-6z" fill="#c7e8ac"/><path d="M516.36 810h8.87m5.92 0h8.88m5.92 0h8.87m5.92 0h8.88m5.92 0h8.87m5.93 0h8.88m5.93 0H614m5.92 0h8.88m5.92 0h8.88m5.9 0h8.9m5.9 0h8.9m5.9 0h8.88m5.92 0h8.88m5.9 0h8.9m5.9 0h8.9m5.9 0h8.88m5.92 0h8.88m5.9 0h4.45l3.04.8 2.15 2.16.8 3.03v4.33m0 5.78v8.7m0 5.77v8.68m0 5.78v8.68m0 5.8v8.67m0 5.8v8.66m0 5.8v8.67m0 5.78v8.68m0 5.78v8.68m0 5.78v8.68m0 5.8v8.66m0 5.8v8.67m0 5.8v4.33l-.8 3.03-2.16 2.15-3.03.83h-4.43m-5.9 0h-8.9m-5.9 0h-8.9m-5.9 0h-8.88m-5.93 0h-8.88m-5.92 0h-8.88m-5.92 0h-8.88m-5.9 0h-8.9m-5.9 0h-8.9m-5.9 0h-8.88m-5.92 0h-8.88m-5.92 0h-8.87m-5.92 0h-8.87m-5.92 0h-8.86m-5.92 0h-8.88m-5.92 0h-8.87m-5.92 0h-8.88m-5.92 0h-8.87m-5.92 0H506l-3.03-.82-2.15-2.14-.82-3.03v-4.34m0-5.8v-8.67m0-5.8v-8.66m0-5.8v-8.67m0-5.78v-8.68m0-5.78v-8.68m0-5.78v-8.68m0-5.8v-8.66m0-5.8v-8.66m0-5.8v-8.67m0-5.78v-8.68m0-5.78v-8.7m0-5.77V816l.82-3.04 2.15-2.15 3.03-.8h4.44" stroke="#7ab648" stroke-width="3" fill="none"/><use xlink:href="#c" transform="matrix(1,0,0,1,512.0000000000001,821.9869055892385) translate(30.044444444444437 71.95333333333333)"/><use xlink:href="#d" transform="matrix(1,0,0,1,512.0000000000001,821.9869055892385) translate(121.76 71.95333333333333)"/><use xlink:href="#e" transform="matrix(1,0,0,1,512.0000000000001,821.9869055892385) translate(71.70222222222222 114.38888888888889)"/><path d="M500 538.26c0-3.32 2.7-6 6-6h266.3c3.33 0 6 2.68 6 6V711.8c0 3.3-2.67 6-6 6H506c-3.3 0-6-2.7-6-6z" fill="#ffbbb1"/><path d="M516.36 532.26h8.87m5.92 0h8.88m5.92 0h8.87m5.92 0h8.88m5.92 0h8.87m5.93 0h8.88m5.93 0H614m5.92 0h8.88m5.92 0h8.88m5.9 0h8.9m5.9 0h8.9m5.9 0h8.88m5.92 0h8.88m5.9 0h8.9m5.9 0h8.9m5.9 0h8.88m5.92 0h8.88m5.9 0h4.45l3.04.82 2.15 2.15.8 3.03v4.34m0 5.78v8.68m0 5.78v8.68m0 5.8v8.66m0 5.8v8.66m0 5.8v8.67m0 5.8v8.67m0 5.78v8.68m0 5.78v8.7m0 5.78v8.67m0 5.8v8.67m0 5.78v8.68m0 5.78v4.34l-.8 3.03-2.16 2.15-3.03.82h-4.43m-5.9 0h-8.9m-5.9 0h-8.9m-5.9 0h-8.88m-5.93 0h-8.88m-5.92 0h-8.88m-5.92 0h-8.88m-5.9 0h-8.9m-5.9 0h-8.9m-5.9 0h-8.88m-5.92 0h-8.88m-5.92 0h-8.87m-5.92 0h-8.87m-5.92 0h-8.86m-5.92 0h-8.88m-5.92 0h-8.87m-5.92 0h-8.88m-5.92 0h-8.87m-5.92 0H506l-3.03-.82-2.15-2.15-.82-3.03v-4.34m0-5.78V693m0-5.78v-8.68m0-5.8v-8.66m0-5.8v-8.67m0-5.77v-8.68m0-5.78v-8.68m0-5.8v-8.67m0-5.8v-8.66m0-5.8v-8.66m0-5.78v-8.68m0-5.78v-8.68m0-5.78v-4.34l.82-3.03 2.15-2.15 3.03-.82h4.44" stroke="#c92d39" stroke-width="3" fill="none"/><use xlink:href="#f" transform="matrix(1,0,0,1,512,544.2585974394357) translate(31.366666666666674 71.95333333333333)"/><use xlink:href="#g" transform="matrix(1,0,0,1,512,544.2585974394357) translate(120.43777777777778 71.95333333333333)"/><use xlink:href="#h" transform="matrix(1,0,0,1,512,544.2585974394357) translate(71.70222222222222 114.38888888888889)"/><path d="M-174.77 284.3c-38.35 0-69.45-23.57-69.45-52.65 0-23.27 18.8-42.9 48-50.08-1.7-68.4 114.06-81.57 160.36-55.24 23.15-39.5 138.9-26.33 138.9 13.17 69.45-13.17 138.9 39.5 92.6 105.32 46.3 52.66 0 118.48-92.6 92.15-23.15 34.23-115.75 34.23-138.9 0-46.3 26.33-138.9 13.17-138.9-52.66z" stroke="#5e5e5e" stroke-width="3" fill="#c1e4f7"/><path d="M-164.22 182.4c0-3.32 2.7-6 6-6H145.2c3.32 0 6 2.68 6 6v98.5c0 3.32-2.68 6-6 6h-303.42c-3.3 0-6-2.68-6-6z" stroke="#000" stroke-opacity="0" stroke-width="3" fill="#fff" fill-opacity="0"/><use xlink:href="#i" transform="matrix(1,0,0,1,-159.21686746987953,181.39562895751732) translate(81.54000000000002 40.43999999999998)"/><use xlink:href="#j" transform="matrix(1,0,0,1,-159.21686746987953,181.39562895751732) translate(32.02000000000004 94.99999999999996)"/><use xlink:href="#k" transform="matrix(1,0,0,1,-159.21686746987953,181.39562895751732) translate(153.42 94.99999999999996)"/><path d="M822.5 619.36l-1.08 4-3.1 3.1-4 1.07h-9.65v-5h9l2.06-.56 1.2-1.2.57-2.07V494.18h5zm-4.18-345.05l3.1 3.1 1.08 4v191.45h-5V282.07l-.56-2.07-1.2-1.2-2.07-.57h-269.7v-5h270.36zm-579.57 3.93v-5h247.38v5zM802.17 629.66l-14.27-4.63 14.27-4.64z" fill="#c92d39"/><path d="M804.67 633.1l-24.86-8.07 24.87-8.08zm-8.68-8.07l3.67 1.2v-2.4zM236.25 280.37L222 275.73l14.25-4.63z" fill="#c92d39"/><path d="M238.75 283.8l-24.86-8.07 24.85-8.07zm-8.67-8.07l3.67 1.2v-2.4z" fill="#c92d39"/><use xlink:href="#l" transform="matrix(1,0,0,1,486.13012213487445,248.45366531259674) translate(0 40.43999999999998)"/><use xlink:href="#m" transform="matrix(1,0,0,1,802.4444444444445,472.8476160722298) translate(0 14.222222222222223)"/><path d="M888.32 214.14l3.1 3.1 1.08 3.98V897.1l-1.08 3.98-3.1 3.1-4 1.08h-79.65v-5h79l2.06-.56 1.2-1.2.57-2.07V221.9l-.56-2.08-1.2-1.2-2.07-.56H563.3v-5h321.03zm-652.73 3.92v-5h272.2v5z" fill="#7ab648"/><path d="M802.17 907.4l-14.27-4.64 14.27-4.64z" fill="#7ab648"/><path d="M804.67 910.83l-24.86-8.07 24.87-8.08zm-8.68-8.07l3.67 1.2v-2.4zM233.1 220.2l-14.28-4.64 14.27-4.64z" fill="#7ab648"/><path d="M235.6 223.63l-24.87-8.07 24.86-8.08zm-8.7-8.07l3.7 1.2v-2.4z" fill="#7ab648"/><use xlink:href="#n" transform="matrix(1,0,0,1,507.80659571441765,188.2759767624798) translate(0 40.43999999999998)"/><path d="M-1000 871.12c0-3.3 2.7-6 6-6h266.3c3.33 0 6 2.7 6 6v173.55c0 3.3-2.67 6-6 6H-994c-3.3 0-6-2.7-6-6z" fill="#ffbbb1"/><path d="M-983.64 865.12h8.87m5.92 0h8.88m5.92 0h8.87m5.92 0h8.88m5.92 0h8.87m5.93 0h8.88m5.93 0h8.87m5.92 0h8.88m5.92 0h8.88m5.9 0h8.9m5.9 0h8.9m5.9 0h8.88m5.92 0h8.88m5.9 0h8.9m5.9 0h8.9m5.9 0h8.88m5.92 0h8.88m5.9 0h4.45l3.04.82 2.15 2.16.8 3.02v4.34m0 5.8v8.67m0 5.78v8.7m0 5.77v8.68m0 5.78v8.68m0 5.8v8.67m0 5.8v8.66m0 5.8v8.67m0 5.78v8.68m0 5.78v8.68m0 5.78v8.68m0 5.8v8.66m0 5.8v4.33l-.8 3.03-2.16 2.15-3.03.82h-4.43m-5.9 0h-8.9m-5.9 0h-8.9m-5.9 0h-8.88m-5.93 0h-8.88m-5.92 0h-8.88m-5.92 0h-8.88m-5.9 0h-8.9m-5.9 0h-8.9m-5.9 0h-8.88m-5.92 0h-8.88m-5.92 0h-8.87m-5.92 0h-8.87m-5.92 0h-8.86m-5.92 0h-8.88m-5.92 0h-8.87m-5.92 0h-8.88m-5.92 0h-8.87m-5.92 0H-994l-3.03-.82-2.15-2.15-.82-3.03v-4.34m0-5.8v-8.66m0-5.8v-8.67m0-5.78v-8.68m0-5.78v-8.68m0-5.78v-8.68m0-5.8v-8.66m0-5.8v-8.66m0-5.8v-8.67m0-5.78v-8.68m0-5.78v-8.7m0-5.77v-8.68m0-5.8v-4.33l.82-3.02 2.15-2.16 3.03-.82h4.44" stroke="#333" stroke-width="3" fill="none"/><use xlink:href="#o" transform="matrix(1,0,0,1,-988,877.1248095073968) translate(10.1388888888889 69.70666666666666)"/><use xlink:href="#p" transform="matrix(1,0,0,1,-988,877.1248095073968) translate(70.37222222222223 69.70666666666666)"/><use xlink:href="#q" transform="matrix(1,0,0,1,-988,877.1248095073968) translate(170.55888888888887 69.70666666666666)"/><use xlink:href="#r" transform="matrix(1,0,0,1,-988,877.1248095073968) translate(27.573333333333352 109.1111111111111)"/><path d="M475.76 625.03h-50.02" stroke="#c92d39" stroke-width="4" fill="none"/><path d="M492.03 625.03l-14.27 4.63v-9.27zM409.47 625.03l14.27-4.64v9.26z" stroke="#c92d39" stroke-width="4" fill="#c92d39"/><path d="M475.76 902.76h-50.02" stroke="#7ab648" stroke-width="4" fill="none"/><path d="M492.03 902.76l-14.27 4.63v-9.28zM409.47 902.76l14.27-4.64v9.27z" stroke="#7ab648" stroke-width="4" fill="#7ab648"/><path d="M-377.83 829.37c0-3.3 2.68-6 6-6h192.1c3.3 0 6 2.7 6 6v117.88c0 3.32-2.7 6-6 6h-192.1c-3.32 0-6-2.68-6-6z" stroke="#5e5e5e" stroke-width="2" fill="#99d2f2"/><use xlink:href="#s" transform="matrix(1,0,0,1,-365.83132530120497,835.3734939759038) translate(9.60666666666667 26.959999999999994)"/><use xlink:href="#t" transform="matrix(1,0,0,1,-365.83132530120497,835.3734939759038) translate(76.46 26.959999999999994)"/><use xlink:href="#u" transform="matrix(1,0,0,1,-365.83132530120497,835.3734939759038) translate(118.64666666666666 26.959999999999994)"/><use xlink:href="#v" transform="matrix(1,0,0,1,-365.83132530120497,835.3734939759038) translate(29.9 63.33333333333332)"/><use xlink:href="#w" transform="matrix(1,0,0,1,-365.83132530120497,835.3734939759038) translate(62.3 63.33333333333332)"/><use xlink:href="#x" transform="matrix(1,0,0,1,-365.83132530120497,835.3734939759038) translate(119.63333333333333 63.33333333333332)"/><use xlink:href="#y" transform="matrix(1,0,0,1,-365.83132530120497,835.3734939759038) translate(58.43333333333334 99.70666666666665)"/><path d="M-377.83 569.6c0-3.3 2.68-6 6-6h192.1c3.3 0 6 2.7 6 6v117.9c0 3.3-2.7 6-6 6h-192.1c-3.32 0-6-2.7-6-6z" stroke="#5e5e5e" stroke-width="2" fill="#99d2f2"/><use xlink:href="#s" transform="matrix(1,0,0,1,-365.83132530120497,575.6144578313254) translate(9.60666666666667 43.522499999999994)"/><use xlink:href="#t" transform="matrix(1,0,0,1,-365.83132530120497,575.6144578313254) translate(76.46 43.522499999999994)"/><use xlink:href="#u" transform="matrix(1,0,0,1,-365.83132530120497,575.6144578313254) translate(118.64666666666666 43.522499999999994)"/><use xlink:href="#v" transform="matrix(1,0,0,1,-365.83132530120497,575.6144578313254) translate(6.433333333333337 79.89583333333331)"/><use xlink:href="#z" transform="matrix(1,0,0,1,-365.83132530120497,575.6144578313254) translate(38.833333333333336 79.89583333333331)"/><use xlink:href="#y" transform="matrix(1,0,0,1,-365.83132530120497,575.6144578313254) translate(110.43333333333334 79.89583333333331)"/><path d="M-272.78 559.6h-6V420.93h6zm1.24-325.18l-1.04.43-.2.5v149.2h-6v-150.4l1.6-3.9 3.34-1.37z" fill="#fff"/><path d="M-272.78 562.6h-6v-3.06h6zM-255.43 231.65l-14.26 4.64V227z" fill="#fff"/><path d="M-245.72 231.65l-26.97 8.76v-17.5zm-20.97.5l1.57-.5-1.56-.5z" fill="#fff"/><use xlink:href="#A" transform="matrix(1,0,0,1,-398.9831325301206,384.5462292237674) translate(0 26.959999999999994)"/><use xlink:href="#B" transform="matrix(1,0,0,1,-398.9831325301206,384.5462292237674) translate(64.07999999999998 26.959999999999994)"/><use xlink:href="#C" transform="matrix(1,0,0,1,-398.9831325301206,384.5462292237674) translate(180.02666666666664 26.959999999999994)"/><path d="M-275.78 819.37v-97.9" stroke="#fff" stroke-width="6" fill="none"/><path d="M-272.78 822.37h-6v-3.07h6z" fill="#fff"/><path d="M-275.78 704.2l4.63 14.27h-9.27z" stroke="#fff" stroke-width="6" fill="#fff"/><path d="M-1000 538.67c0-3.32 2.7-6 6-6h266.3c3.33 0 6 2.68 6 6V712.2c0 3.32-2.67 6-6 6H-994c-3.3 0-6-2.68-6-6z" fill="#7cd9b8"/><path d="M-983.64 532.67h8.87m5.92 0h8.88m5.92 0h8.87m5.92 0h8.88m5.92 0h8.87m5.93 0h8.88m5.93 0h8.87m5.92 0h8.88m5.92 0h8.88m5.9 0h8.9m5.9 0h8.9m5.9 0h8.88m5.92 0h8.88m5.9 0h8.9m5.9 0h8.9m5.9 0h8.88m5.92 0h8.88m5.9 0h4.45l3.04.82 2.15 2.14.8 3.03V543m0 5.8v8.67m0 5.78v8.68m0 5.78v8.7m0 5.78v8.67m0 5.8v8.66m0 5.8v8.68m0 5.78v8.68m0 5.78v8.68m0 5.78v8.68m0 5.8v8.66m0 5.8v8.67m0 5.77v4.34l-.8 3.04-2.16 2.15-3.03.8h-4.43m-5.9 0h-8.9m-5.9 0h-8.9m-5.9 0h-8.88m-5.93 0h-8.88m-5.92 0h-8.88m-5.92 0h-8.88m-5.9 0h-8.9m-5.9 0h-8.9m-5.9 0h-8.88m-5.92 0h-8.88m-5.92 0h-8.87m-5.92 0h-8.87m-5.92 0h-8.86m-5.92 0h-8.88m-5.92 0h-8.87m-5.92 0h-8.88m-5.92 0h-8.87m-5.92 0H-994l-3.03-.8-2.15-2.16-.82-3.03v-4.33m0-5.78v-8.7m0-5.78v-8.67m0-5.8v-8.67m0-5.78v-8.68m0-5.78v-8.68m0-5.78v-8.68m0-5.8v-8.66m0-5.8v-8.66m0-5.8v-8.67m0-5.77v-8.68m0-5.78v-8.68m0-5.8v-4.33l.82-3.03 2.15-2.15 3.03-.83h4.44" stroke="#333" stroke-width="3" fill="none"/><use xlink:href="#D" transform="matrix(1,0,0,1,-988,544.666355151238) translate(21.98333333333332 69.70666666666666)"/><use xlink:href="#E" transform="matrix(1,0,0,1,-988,544.666355151238) translate(66.84777777777776 69.70666666666666)"/><use xlink:href="#F" transform="matrix(1,0,0,1,-988,544.666355151238) translate(27.573333333333352 111.35777777777777)"/><path d="M-691.1 625.44h239" stroke="#d1bcd2" stroke-width="7" fill="none"/><path d="M-708.86 625.44l14.27-4.64v9.27zM-434.33 625.44l-14.26 4.63v-9.27z" stroke="#d1bcd2" stroke-width="7" fill="#d1bcd2"/><path d="M-691.1 957.9h239" stroke="#d1bcd2" stroke-width="7" fill="none"/><path d="M-708.86 957.9l14.27-4.64v9.27zM-434.33 957.9l-14.26 4.63v-9.27z" stroke="#d1bcd2" stroke-width="7" fill="#d1bcd2"/><path d="M-700 554.55c0-3.3 2.7-6 6-6h248c3.3 0 6 2.7 6 6v148c0 3.32-2.7 6-6 6h-248c-3.3 0-6-2.68-6-6z" stroke="#000" stroke-opacity="0" stroke-width="7" fill="#fff" fill-opacity="0"/><g><use xlink:href="#G" transform="matrix(1,0,0,1,-695,553.5542168674699) translate(25.475555555555587 40.82833333333332)"/><use xlink:href="#H" transform="matrix(1,0,0,1,-695,553.5542168674699) translate(125 83.26388888888886)"/><use xlink:href="#I" transform="matrix(1,0,0,1,-695,553.5542168674699) translate(18.24222222222224 125.6994444444444)"/><use xlink:href="#J" transform="matrix(1,0,0,1,-695,553.5542168674699) translate(98.10444444444444 125.6994444444444)"/></g><path d="M-682.17 903.6c0-3.32 2.7-6 6-6h210.65c3.32 0 6 2.68 6 6v43.65c0 3.32-2.68 6-6 6h-210.65c-3.3 0-6-2.68-6-6z" stroke="#000" stroke-opacity="0" stroke-width="7" fill="#fff" fill-opacity="0"/><g><use xlink:href="#K" transform="matrix(1,0,0,1,-677.1686746987953,902.5903614457834) translate(22.68666666666668 34.32833333333332)"/><use xlink:href="#L" transform="matrix(1,0,0,1,-677.1686746987953,902.5903614457834) translate(114.40222222222222 34.32833333333332)"/></g><path d="M20 729.6c0-3.3 2.7-6 6-6h192.1c3.3 0 6 2.7 6 6v111.5c0 3.33-2.7 6-6 6H26c-3.3 0-6-2.67-6-6z" stroke="#5e5e5e" stroke-width="2" fill="#99d2f2"/><g><use xlink:href="#s" transform="matrix(1,0,0,1,32,735.6144578313254) translate(3.913333333333341 26.959999999999994)"/><use xlink:href="#t" transform="matrix(1,0,0,1,32,735.6144578313254) translate(70.76666666666667 26.959999999999994)"/><use xlink:href="#M" transform="matrix(1,0,0,1,32,735.6144578313254) translate(112.95333333333333 26.959999999999994)"/><use xlink:href="#v" transform="matrix(1,0,0,1,32,735.6144578313254) translate(20.593333333333334 63.33333333333332)"/><use xlink:href="#N" transform="matrix(1,0,0,1,32,735.6144578313254) translate(52.99333333333333 63.33333333333332)"/><use xlink:href="#O" transform="matrix(1,0,0,1,32,735.6144578313254) translate(135.23333333333332 63.33333333333332)"/><use xlink:href="#P" transform="matrix(1,0,0,1,32,735.6144578313254) translate(20.52666666666667 99.70666666666665)"/><use xlink:href="#Q" transform="matrix(1,0,0,1,32,735.6144578313254) translate(119.75333333333333 99.70666666666665)"/></g><path d="M131.33 875.1v14.2c0 3.32 2.68 6 6 6h108c3.3 0 6 2.7 6 6v38.2" stroke="#7ab648" stroke-width="6" fill="none"/><path d="M131.33 857.82l4.63 14.27h-9.27z" stroke="#7ab648" stroke-width="6" fill="#7ab648"/><path d="M254.33 942.5h-6v-3.08h6z" fill="#7ab648"/><path d="M140 948.5c0-3.32 2.7-6 6-6h210.65c3.3 0 6 2.68 6 6v70.74c0 3.3-2.7 6-6 6H146c-3.3 0-6-2.7-6-6z" stroke="#000" stroke-opacity="0" stroke-width="6" fill="#fff" fill-opacity="0"/><g><use xlink:href="#R" transform="matrix(1,0,0,1,145,947.4928514056226) translate(34.006666666666675 26.959999999999994)"/><use xlink:href="#S" transform="matrix(1,0,0,1,145,947.4928514056226) translate(122.14 26.959999999999994)"/><use xlink:href="#T" transform="matrix(1,0,0,1,145,947.4928514056226) translate(73.74000000000001 63.33333333333332)"/></g><path d="M16 785.36h-86.87c-3.3 0-6 2.7-6 6v90.95c0 3.33-2.68 6-6 6h-62.9" stroke="#fff" stroke-width="6" fill="none"/><path d="M19 788.36h-3.08v-6H19z" fill="#fff"/><path d="M-163.03 888.3l14.27-4.62v9.27z" stroke="#fff" stroke-width="6" fill="#fff"/><path d="M-275.78 981.23v67.4c0 3.3 2.68 6 6 6H-203" stroke="#7ab648" stroke-width="6" fill="none"/><path d="M-275.78 963.96l4.63 14.27h-9.27z" stroke="#7ab648" stroke-width="6" fill="#7ab648"/><path d="M-200 1057.62h-3.08v-6h3.08z" fill="#7ab648"/><path d="M-200 1031.24c0-3.3 2.7-6 6-6H16.65c3.3 0 6 2.7 6 6V1078c0 3.3-2.7 6-6 6H-194c-3.3 0-6-2.7-6-6z" stroke="#000" stroke-opacity="0" stroke-width="6" fill="#fff" fill-opacity="0"/><g><use xlink:href="#U" transform="matrix(1,0,0,1,-195,1030.2395180722892) translate(7.700000000000017 26.959999999999994)"/><use xlink:href="#V" transform="matrix(1,0,0,1,-195,1030.2395180722892) translate(138.28666666666666 26.959999999999994)"/><use xlink:href="#T" transform="matrix(1,0,0,1,-195,1030.2395180722892) translate(73.74000000000001 63.33333333333332)"/></g><defs><path fill="#0c7cba" d="M702-710c37-1 63 26 62 64v592c1 36-23 60-58 60s-57-24-56-60v-412L480-144c-13 34-55 57-92 33-9-7-18-18-26-33L191-461v407c1 35-22 61-57 60-35 0-57-24-56-60v-592c-1-38 24-65 61-64 26 0 46 14 61 43l222 423 221-423c15-29 34-43 59-43" id="W"/><path fill="#0c7cba" d="M277-501c137 0 201 67 201 204v244c0 36-24 58-60 58-42 0-65-32-59-80-20 49-71 83-138 83C122 5 46-48 46-145c0-149 151-140 313-144 4-76-16-118-89-117-63-1-114 36-168 46-36 6-54-49-32-76 37-46 126-63 207-65zM246-82c74 0 121-59 113-141-93 5-183-11-191 68-1 42 36 74 78 73" id="X"/><path fill="#0c7cba" d="M127 6C91 6 65-16 65-54v-386c-1-38 26-59 62-59s63 21 63 59v386c1 38-27 60-63 60zm0-594c-43 1-74-26-74-67s31-67 74-66c42-1 75 25 74 66 0 41-31 68-74 67" id="Y"/><path fill="#0c7cba" d="M349-501c124 1 174 73 174 201v246c0 37-24 60-62 60s-63-23-63-60v-239c0-71-22-108-89-109-72-1-119 52-119 125v223c0 37-25 60-63 60S65-17 65-54v-387c0-35 26-59 63-58 44 0 66 33 59 83 30-50 86-85 162-85" id="Z"/><g id="a"><use transform="matrix(0.04444444444444444,0,0,0.04444444444444444,0,0)" xlink:href="#W"/><use transform="matrix(0.04444444444444444,0,0,0.04444444444444444,37.37777777777777,0)" xlink:href="#X"/><use transform="matrix(0.04444444444444444,0,0,0.04444444444444444,61.37777777777777,0)" xlink:href="#Y"/><use transform="matrix(0.04444444444444444,0,0,0.04444444444444444,72.66666666666666,0)" xlink:href="#Z"/></g><path fill="#0c7cba" d="M140 6c-39 0-65-26-64-65v-585c0-38 24-61 62-61h246c144-2 240 75 239 215 1 140-95 216-239 216H205v215c1 39-26 66-65 65zm361-495c0-77-44-116-133-116H205v232h163c89 0 133-39 133-116" id="aa"/><path fill="#0c7cba" d="M126-499c51-1 64 40 58 96 24-58 79-88 154-96 54-6 71 58 43 90-11 14-49 18-77 20-73 6-114 51-114 125v210c1 38-27 60-63 60S65-16 65-54v-387c-1-36 26-58 61-58" id="ab"/><path fill="#0c7cba" d="M288 8C130 8 38-89 38-247s93-254 250-254 249 96 249 254S446 8 288 8zm-1-97c89-1 126-63 125-158 1-94-37-157-124-158-87 1-126 64-125 158-1 95 36 156 124 158" id="ac"/><path fill="#0c7cba" d="M366-4C179 41 38-60 38-244c0-183 141-290 330-246 43 13 100 34 101 83 1 26-14 49-38 49-52-7-75-48-135-45-88 1-130 63-129 157-1 93 41 156 129 156 59 2 85-39 136-46 34-1 48 49 30 78-21 27-58 42-96 54" id="ad"/><path fill="#0c7cba" d="M452-134c24 0 39 22 38 48-2 49-69 69-114 82C188 44 32-62 38-246c3-153 88-255 238-255 141 0 215 93 218 236 0 29-13 43-38 43H161c8 87 45 133 135 134 63 4 107-36 156-46zm-65-155c-2-75-36-123-108-124-74 1-111 51-118 124h226" id="ae"/><path fill="#0c7cba" d="M432-211C492-84 379 8 242 8 169 8 113-11 66-35c-40-21-44-96 6-99 57 11 99 53 173 47 77 15 128-76 45-99-101-32-240-34-240-161 0-159 234-190 352-113 21 13 32 31 32 53 1 24-16 47-38 47-56-10-84-52-150-48-62-10-112 63-58 94 65 37 214 37 244 103" id="af"/><g id="b"><use transform="matrix(0.04444444444444444,0,0,0.04444444444444444,0,0)" xlink:href="#aa"/><use transform="matrix(0.04444444444444444,0,0,0.04444444444444444,28.888888888888886,0)" xlink:href="#ab"/><use transform="matrix(0.04444444444444444,0,0,0.04444444444444444,45.46666666666666,0)" xlink:href="#ac"/><use transform="matrix(0.04444444444444444,0,0,0.04444444444444444,71.02222222222221,0)" xlink:href="#ad"/><use transform="matrix(0.04444444444444444,0,0,0.04444444444444444,92.7111111111111,0)" xlink:href="#ae"/><use transform="matrix(0.04444444444444444,0,0,0.04444444444444444,116.3111111111111,0)" xlink:href="#af"/><use transform="matrix(0.04444444444444444,0,0,0.04444444444444444,137.86666666666665,0)" xlink:href="#af"/></g><path fill="#7ab648" d="M613-381c30-1 51 20 51 49v215C674-14 589-13 510 1 235 49 50-89 54-353c3-224 124-357 347-361 94 0 168 30 231 76 40 29 19 125-38 96-62-32-101-69-189-67-153 1-221 96-220 256 0 173 76 260 228 260 45 0 91-6 136-19v-177c-63-7-164 24-164-46 0-30 20-46 51-46h177" id="ag"/><path fill="#7ab648" d="M277-501c137 0 201 67 201 204v244c0 36-24 58-60 58-42 0-65-32-59-80-20 49-71 83-138 83C122 5 46-48 46-145c0-149 151-140 313-144 4-76-16-118-89-117-63-1-114 36-168 46-36 6-54-49-32-76 37-46 126-63 207-65zM246-82c74 0 121-59 113-141-93 5-183-11-191 68-1 42 36 74 78 73" id="ah"/><path fill="#7ab648" d="M646-501c118 3 166 71 165 201v246c1 38-26 60-63 60-36 0-62-22-62-60v-246c0-67-19-100-79-102-68 0-107 53-107 125v223c1 38-26 60-62 60s-63-22-63-60v-246c0-67-19-100-79-102-69 0-106 53-106 125v223c1 38-27 60-63 60S65-16 65-54v-387c-1-37 27-58 63-58 44 0 66 30 59 80 28-49 77-81 150-82 73 0 122 31 147 92 26-52 86-92 162-92" id="ai"/><path fill="#7ab648" d="M452-134c24 0 39 22 38 48-2 49-69 69-114 82C188 44 32-62 38-246c3-153 88-255 238-255 141 0 215 93 218 236 0 29-13 43-38 43H161c8 87 45 133 135 134 63 4 107-36 156-46zm-65-155c-2-75-36-123-108-124-74 1-111 51-118 124h226" id="aj"/><g id="c"><use transform="matrix(0.031111111111111114,0,0,0.031111111111111114,0,0)" xlink:href="#ag"/><use transform="matrix(0.031111111111111114,0,0,0.031111111111111114,22.804444444444446,0)" xlink:href="#ah"/><use transform="matrix(0.031111111111111114,0,0,0.031111111111111114,39.60444444444445,0)" xlink:href="#ai"/><use transform="matrix(0.031111111111111114,0,0,0.031111111111111114,66.76444444444445,0)" xlink:href="#aj"/></g><path fill="#7ab648" d="M595-201C600 42 215 49 63-67 28-94 36-167 82-167c49 0 87 49 131 59 97 23 258 24 255-86 0-25-12-44-36-58-51-31-209-55-265-84-65-34-111-73-111-163 0-144 123-211 273-215 106 0 197 32 251 98 18 38-10 96-54 75-65-31-102-73-197-70-80-1-146 31-147 104 0 27 12 48 35 63 49 34 207 58 263 86 64 32 113 70 115 157" id="ak"/><path fill="#7ab648" d="M365-442c0 64-82 44-141 47v227c-1 60 35 81 95 81 33 0 50 17 50 45 0 46-53 50-102 45C155-7 99-65 99-177v-218c-52 1-106 5-106-47s54-49 106-47v-92c0-36 26-60 63-59 36-1 63 23 62 59v92c59 3 141-17 141 47" id="al"/><path fill="#7ab648" d="M126-499c51-1 64 40 58 96 24-58 79-88 154-96 54-6 71 58 43 90-11 14-49 18-77 20-73 6-114 51-114 125v210c1 38-27 60-63 60S65-16 65-54v-387c-1-36 26-58 61-58" id="am"/><g id="d"><use transform="matrix(0.031111111111111114,0,0,0.031111111111111114,0,0)" xlink:href="#ak"/><use transform="matrix(0.031111111111111114,0,0,0.031111111111111114,19.631111111111114,0)" xlink:href="#al"/><use transform="matrix(0.031111111111111114,0,0,0.031111111111111114,31.111111111111114,0)" xlink:href="#am"/><use transform="matrix(0.031111111111111114,0,0,0.031111111111111114,42.71555555555556,0)" xlink:href="#aj"/><use transform="matrix(0.031111111111111114,0,0,0.031111111111111114,59.235555555555564,0)" xlink:href="#ah"/><use transform="matrix(0.031111111111111114,0,0,0.031111111111111114,76.03555555555556,0)" xlink:href="#ai"/></g><path fill="#7ab648" d="M140 6c-39 0-65-26-64-65v-585c0-38 24-61 62-61h246c144-2 240 75 239 215 1 140-95 216-239 216H205v215c1 39-26 66-65 65zm361-495c0-77-44-116-133-116H205v232h163c89 0 133-39 133-116" id="an"/><path fill="#7ab648" d="M288 8C130 8 38-89 38-247s93-254 250-254 249 96 249 254S446 8 288 8zm-1-97c89-1 126-63 125-158 1-94-37-157-124-158-87 1-126 64-125 158-1 95 36 156 124 158" id="ao"/><path fill="#7ab648" d="M366-4C179 41 38-60 38-244c0-183 141-290 330-246 43 13 100 34 101 83 1 26-14 49-38 49-52-7-75-48-135-45-88 1-130 63-129 157-1 93 41 156 129 156 59 2 85-39 136-46 34-1 48 49 30 78-21 27-58 42-96 54" id="ap"/><path fill="#7ab648" d="M432-211C492-84 379 8 242 8 169 8 113-11 66-35c-40-21-44-96 6-99 57 11 99 53 173 47 77 15 128-76 45-99-101-32-240-34-240-161 0-159 234-190 352-113 21 13 32 31 32 53 1 24-16 47-38 47-56-10-84-52-150-48-62-10-112 63-58 94 65 37 214 37 244 103" id="aq"/><g id="e"><use transform="matrix(0.031111111111111114,0,0,0.031111111111111114,0,0)" xlink:href="#an"/><use transform="matrix(0.031111111111111114,0,0,0.031111111111111114,20.222222222222225,0)" xlink:href="#am"/><use transform="matrix(0.031111111111111114,0,0,0.031111111111111114,31.82666666666667,0)" xlink:href="#ao"/><use transform="matrix(0.031111111111111114,0,0,0.031111111111111114,49.71555555555556,0)" xlink:href="#ap"/><use transform="matrix(0.031111111111111114,0,0,0.031111111111111114,64.89777777777779,0)" xlink:href="#aj"/><use transform="matrix(0.031111111111111114,0,0,0.031111111111111114,81.41777777777779,0)" xlink:href="#aq"/><use transform="matrix(0.031111111111111114,0,0,0.031111111111111114,96.50666666666667,0)" xlink:href="#aq"/></g><path fill="#c92d39" d="M138 0c-38 0-62-23-62-61v-583c0-38 24-61 62-61h361c36 0 61 16 61 50 0 35-25 52-61 52H202v194h277c36 0 61 16 61 51 0 34-25 50-61 50H202v206h297c36 0 61 17 61 52 0 34-25 50-61 50H138" id="ar"/><path fill="#c92d39" d="M15-421c-32-67 81-111 112-43l140 309 139-308c19-69 138-28 105 42L326-34c-15 50-102 48-125 0" id="as"/><path fill="#c92d39" d="M452-134c24 0 39 22 38 48-2 49-69 69-114 82C188 44 32-62 38-246c3-153 88-255 238-255 141 0 215 93 218 236 0 29-13 43-38 43H161c8 87 45 133 135 134 63 4 107-36 156-46zm-65-155c-2-75-36-123-108-124-74 1-111 51-118 124h226" id="at"/><path fill="#c92d39" d="M349-501c124 1 174 73 174 201v246c0 37-24 60-62 60s-63-23-63-60v-239c0-71-22-108-89-109-72-1-119 52-119 125v223c0 37-25 60-63 60S65-17 65-54v-387c0-35 26-59 63-58 44 0 66 33 59 83 30-50 86-85 162-85" id="au"/><path fill="#c92d39" d="M365-442c0 64-82 44-141 47v227c-1 60 35 81 95 81 33 0 50 17 50 45 0 46-53 50-102 45C155-7 99-65 99-177v-218c-52 1-106 5-106-47s54-49 106-47v-92c0-36 26-60 63-59 36-1 63 23 62 59v92c59 3 141-17 141 47" id="av"/><g id="f"><use transform="matrix(0.031111111111111114,0,0,0.031111111111111114,0,0)" xlink:href="#ar"/><use transform="matrix(0.031111111111111114,0,0,0.031111111111111114,18.324444444444445,0)" xlink:href="#as"/><use transform="matrix(0.031111111111111114,0,0,0.031111111111111114,34.44,0)" xlink:href="#at"/><use transform="matrix(0.031111111111111114,0,0,0.031111111111111114,50.96,0)" xlink:href="#au"/><use transform="matrix(0.031111111111111114,0,0,0.031111111111111114,69.16,0)" xlink:href="#av"/></g><path fill="#c92d39" d="M595-201C600 42 215 49 63-67 28-94 36-167 82-167c49 0 87 49 131 59 97 23 258 24 255-86 0-25-12-44-36-58-51-31-209-55-265-84-65-34-111-73-111-163 0-144 123-211 273-215 106 0 197 32 251 98 18 38-10 96-54 75-65-31-102-73-197-70-80-1-146 31-147 104 0 27 12 48 35 63 49 34 207 58 263 86 64 32 113 70 115 157" id="aw"/><path fill="#c92d39" d="M126-499c51-1 64 40 58 96 24-58 79-88 154-96 54-6 71 58 43 90-11 14-49 18-77 20-73 6-114 51-114 125v210c1 38-27 60-63 60S65-16 65-54v-387c-1-36 26-58 61-58" id="ax"/><path fill="#c92d39" d="M277-501c137 0 201 67 201 204v244c0 36-24 58-60 58-42 0-65-32-59-80-20 49-71 83-138 83C122 5 46-48 46-145c0-149 151-140 313-144 4-76-16-118-89-117-63-1-114 36-168 46-36 6-54-49-32-76 37-46 126-63 207-65zM246-82c74 0 121-59 113-141-93 5-183-11-191 68-1 42 36 74 78 73" id="ay"/><path fill="#c92d39" d="M646-501c118 3 166 71 165 201v246c1 38-26 60-63 60-36 0-62-22-62-60v-246c0-67-19-100-79-102-68 0-107 53-107 125v223c1 38-26 60-62 60s-63-22-63-60v-246c0-67-19-100-79-102-69 0-106 53-106 125v223c1 38-27 60-63 60S65-16 65-54v-387c-1-37 27-58 63-58 44 0 66 30 59 80 28-49 77-81 150-82 73 0 122 31 147 92 26-52 86-92 162-92" id="az"/><g id="g"><use transform="matrix(0.031111111111111114,0,0,0.031111111111111114,0,0)" xlink:href="#aw"/><use transform="matrix(0.031111111111111114,0,0,0.031111111111111114,19.631111111111114,0)" xlink:href="#av"/><use transform="matrix(0.031111111111111114,0,0,0.031111111111111114,31.111111111111114,0)" xlink:href="#ax"/><use transform="matrix(0.031111111111111114,0,0,0.031111111111111114,42.71555555555556,0)" xlink:href="#at"/><use transform="matrix(0.031111111111111114,0,0,0.031111111111111114,59.235555555555564,0)" xlink:href="#ay"/><use transform="matrix(0.031111111111111114,0,0,0.031111111111111114,76.03555555555556,0)" xlink:href="#az"/></g><path fill="#c92d39" d="M140 6c-39 0-65-26-64-65v-585c0-38 24-61 62-61h246c144-2 240 75 239 215 1 140-95 216-239 216H205v215c1 39-26 66-65 65zm361-495c0-77-44-116-133-116H205v232h163c89 0 133-39 133-116" id="aA"/><path fill="#c92d39" d="M288 8C130 8 38-89 38-247s93-254 250-254 249 96 249 254S446 8 288 8zm-1-97c89-1 126-63 125-158 1-94-37-157-124-158-87 1-126 64-125 158-1 95 36 156 124 158" id="aB"/><path fill="#c92d39" d="M366-4C179 41 38-60 38-244c0-183 141-290 330-246 43 13 100 34 101 83 1 26-14 49-38 49-52-7-75-48-135-45-88 1-130 63-129 157-1 93 41 156 129 156 59 2 85-39 136-46 34-1 48 49 30 78-21 27-58 42-96 54" id="aC"/><path fill="#c92d39" d="M432-211C492-84 379 8 242 8 169 8 113-11 66-35c-40-21-44-96 6-99 57 11 99 53 173 47 77 15 128-76 45-99-101-32-240-34-240-161 0-159 234-190 352-113 21 13 32 31 32 53 1 24-16 47-38 47-56-10-84-52-150-48-62-10-112 63-58 94 65 37 214 37 244 103" id="aD"/><g id="h"><use transform="matrix(0.031111111111111114,0,0,0.031111111111111114,0,0)" xlink:href="#aA"/><use transform="matrix(0.031111111111111114,0,0,0.031111111111111114,20.222222222222225,0)" xlink:href="#ax"/><use transform="matrix(0.031111111111111114,0,0,0.031111111111111114,31.82666666666667,0)" xlink:href="#aB"/><use transform="matrix(0.031111111111111114,0,0,0.031111111111111114,49.71555555555556,0)" xlink:href="#aC"/><use transform="matrix(0.031111111111111114,0,0,0.031111111111111114,64.89777777777779,0)" xlink:href="#at"/><use transform="matrix(0.031111111111111114,0,0,0.031111111111111114,81.41777777777779,0)" xlink:href="#aD"/><use transform="matrix(0.031111111111111114,0,0,0.031111111111111114,96.50666666666667,0)" xlink:href="#aD"/></g><path fill="#333" d="M137 0C99 0 76-23 76-60v-586c-1-38 26-65 64-64 39-1 65 25 65 64v540h281c40 0 60 18 60 53S526 0 486 0H137" id="aE"/><path fill="#333" d="M127 6C91 6 65-16 65-54v-386c-1-38 26-59 62-59s63 21 63 59v386c1 38-27 60-63 60zm0-594c-43 1-74-26-74-67s31-67 74-66c42-1 75 25 74 66 0 41-31 68-74 67" id="aF"/><path fill="#333" d="M391 9C173 4 54-132 54-353s119-356 337-361c95 0 172 30 227 76 37 18 28 103-18 100s-86-50-121-58c-25-6-52-13-82-13-148 1-211 100-211 256 0 188 110 294 290 244 36-7 75-54 124-58 45-4 52 75 18 100C560-26 487 9 391 9" id="aG"/><path fill="#333" d="M190-421c30-48 86-80 161-80 115 0 172 67 172 201v246c0 37-24 60-62 60s-63-23-63-60v-246c0-68-24-101-89-102-72-1-119 52-119 125v223c0 37-25 60-63 60S65-17 65-54v-598c-1-35 27-59 63-58 36-1 62 21 62 56v233" id="aH"/><path fill="#333" d="M452-134c24 0 39 22 38 48-2 49-69 69-114 82C188 44 32-62 38-246c3-153 88-255 238-255 141 0 215 93 218 236 0 29-13 43-38 43H161c8 87 45 133 135 134 63 4 107-36 156-46zm-65-155c-2-75-36-123-108-124-74 1-111 51-118 124h226" id="aI"/><path fill="#333" d="M432-211C492-84 379 8 242 8 169 8 113-11 66-35c-40-21-44-96 6-99 57 11 99 53 173 47 77 15 128-76 45-99-101-32-240-34-240-161 0-159 234-190 352-113 21 13 32 31 32 53 1 24-16 47-38 47-56-10-84-52-150-48-62-10-112 63-58 94 65 37 214 37 244 103" id="aJ"/><g id="i"><use transform="matrix(0.03999999999999999,0,0,0.03999999999999999,0,0)" xlink:href="#aE"/><use transform="matrix(0.03999999999999999,0,0,0.03999999999999999,22.199999999999992,0)" xlink:href="#aF"/><use transform="matrix(0.03999999999999999,0,0,0.03999999999999999,32.359999999999985,0)" xlink:href="#aG"/><use transform="matrix(0.03999999999999999,0,0,0.03999999999999999,59.47999999999997,0)" xlink:href="#aH"/><use transform="matrix(0.03999999999999999,0,0,0.03999999999999999,82.87999999999997,0)" xlink:href="#aI"/><use transform="matrix(0.03999999999999999,0,0,0.03999999999999999,104.11999999999996,0)" xlink:href="#aJ"/><use transform="matrix(0.03999999999999999,0,0,0.03999999999999999,123.51999999999995,0)" xlink:href="#aJ"/></g><g id="j"><use transform="matrix(0.03999999999999999,0,0,0.03999999999999999,0,0)" xlink:href="#aG"/><use transform="matrix(0.03999999999999999,0,0,0.03999999999999999,27.11999999999999,0)" xlink:href="#aH"/><use transform="matrix(0.03999999999999999,0,0,0.03999999999999999,50.51999999999998,0)" xlink:href="#aI"/><use transform="matrix(0.03999999999999999,0,0,0.03999999999999999,71.75999999999998,0)" xlink:href="#aJ"/><use transform="matrix(0.03999999999999999,0,0,0.03999999999999999,91.15999999999997,0)" xlink:href="#aJ"/></g><path fill="#333" d="M595-201C600 42 215 49 63-67 28-94 36-167 82-167c49 0 87 49 131 59 97 23 258 24 255-86 0-25-12-44-36-58-51-31-209-55-265-84-65-34-111-73-111-163 0-144 123-211 273-215 106 0 197 32 251 98 18 38-10 96-54 75-65-31-102-73-197-70-80-1-146 31-147 104 0 27 12 48 35 63 49 34 207 58 263 86 64 32 113 70 115 157" id="aK"/><path fill="#333" d="M126-499c51-1 64 40 58 96 24-58 79-88 154-96 54-6 71 58 43 90-11 14-49 18-77 20-73 6-114 51-114 125v210c1 38-27 60-63 60S65-16 65-54v-387c-1-36 26-58 61-58" id="aL"/><path fill="#333" d="M15-421c-32-67 81-111 112-43l140 309 139-308c19-69 138-28 105 42L326-34c-15 50-102 48-125 0" id="aM"/><g id="k"><use transform="matrix(0.03999999999999999,0,0,0.03999999999999999,0,0)" xlink:href="#aK"/><use transform="matrix(0.03999999999999999,0,0,0.03999999999999999,25.519999999999992,0)" xlink:href="#aI"/><use transform="matrix(0.03999999999999999,0,0,0.03999999999999999,46.759999999999984,0)" xlink:href="#aL"/><use transform="matrix(0.03999999999999999,0,0,0.03999999999999999,63.27999999999998,0)" xlink:href="#aM"/><use transform="matrix(0.03999999999999999,0,0,0.03999999999999999,83.99999999999997,0)" xlink:href="#aI"/><use transform="matrix(0.03999999999999999,0,0,0.03999999999999999,105.23999999999997,0)" xlink:href="#aL"/></g><path fill="#c92d39" d="M303 119c20 45-25 84-67 55-11-6-20-15-27-28C65-98 65-430 209-673c13-21 31-36 59-38 33-2 50 34 35 64-100 229-98 548 0 766" id="aN"/><path fill="#c92d39" d="M136-31C112 38-5-6 28-77l276-593c16-53 110-51 134 0L715-77c36 66-75 117-107 46l-60-134H196zm104-234h264L372-562" id="aO"/><path fill="#c92d39" d="M49-647c-20-45 26-85 67-55 10 6 19 16 27 29 144 243 144 575 0 819-12 40-98 57-99-2 0-9 2-18 5-25 96-218 103-539 0-766" id="aP"/><g id="l"><use transform="matrix(0.03999999999999999,0,0,0.03999999999999999,0,0)" xlink:href="#aN"/><use transform="matrix(0.03999999999999999,0,0,0.03999999999999999,14.079999999999995,0)" xlink:href="#aO"/><use transform="matrix(0.03999999999999999,0,0,0.03999999999999999,43.759999999999984,0)" xlink:href="#aP"/></g><path fill="#333" d="M136-208V0H84v-208H4v-40h212v40h-80" id="aQ"/><path fill="#333" d="M185-48c-13 30-37 53-82 52C43 2 14-33 14-96s30-98 90-98c62 0 83 45 84 108H66c0 31 8 55 39 56 18 0 30-7 34-22zm-45-69c5-46-57-63-70-21-2 6-4 13-4 21h74" id="aR"/><path fill="#333" d="M144 0l-44-69L55 0H2l70-98-66-92h53l41 62 40-62h54l-67 91 71 99h-54" id="aS"/><path fill="#333" d="M115-3C79 11 28 4 28-45v-112H4v-33h27l15-45h31v45h36v33H77v99c-1 23 16 31 38 25v30" id="aT"/><g id="m"><use transform="matrix(0.04938271604938272,0,0,0.04938271604938272,0,0)" xlink:href="#aQ"/><use transform="matrix(0.04938271604938272,0,0,0.04938271604938272,9.481481481481481,0)" xlink:href="#aR"/><use transform="matrix(0.04938271604938272,0,0,0.04938271604938272,19.358024691358025,0)" xlink:href="#aS"/><use transform="matrix(0.04938271604938272,0,0,0.04938271604938272,29.23456790123457,0)" xlink:href="#aT"/></g><path fill="#7ab648" d="M303 119c20 45-25 84-67 55-11-6-20-15-27-28C65-98 65-430 209-673c13-21 31-36 59-38 33-2 50 34 35 64-100 229-98 548 0 766" id="aU"/><path fill="#7ab648" d="M510-364c76 20 128 80 128 172C637-63 534 0 396 0H138c-38 0-62-23-62-61v-583c0-38 24-61 62-61h248c134-2 234 59 235 184 0 81-48 135-111 157zm-12-143c4-131-172-92-296-98v197h163c89 0 133-33 133-99zM202-100c129-8 314 39 314-103s-183-98-314-105v208" id="aV"/><path fill="#7ab648" d="M49-647c-20-45 26-85 67-55 10 6 19 16 27 29 144 243 144 575 0 819-12 40-98 57-99-2 0-9 2-18 5-25 96-218 103-539 0-766" id="aW"/><g id="n"><use transform="matrix(0.03999999999999999,0,0,0.03999999999999999,0,0)" xlink:href="#aU"/><use transform="matrix(0.03999999999999999,0,0,0.03999999999999999,14.079999999999995,0)" xlink:href="#aV"/><use transform="matrix(0.03999999999999999,0,0,0.03999999999999999,41.399999999999984,0)" xlink:href="#aW"/></g><path fill="#333" d="M627-710c38-1 64 26 63 64v587c1 37-26 66-63 65-38 1-64-27-63-65v-247H203v247c1 38-26 66-64 65-37 1-64-28-63-65v-587c-1-38 25-65 63-64 38-1 65 26 64 64v236h361v-236c-1-38 25-65 63-64" id="aX"/><path fill="#333" d="M277-501c137 0 201 67 201 204v244c0 36-24 58-60 58-42 0-65-32-59-80-20 49-71 83-138 83C122 5 46-48 46-145c0-149 151-140 313-144 4-76-16-118-89-117-63-1-114 36-168 46-36 6-54-49-32-76 37-46 126-63 207-65zM246-82c74 0 121-59 113-141-93 5-183-11-191 68-1 42 36 74 78 73" id="aY"/><path fill="#333" d="M127 6C91 6 65-16 65-54v-597c-1-38 26-59 62-59s63 21 63 59v597c1 38-27 60-63 60" id="aZ"/><g id="o"><use transform="matrix(0.028888888888888888,0,0,0.028888888888888888,0,0)" xlink:href="#aX"/><use transform="matrix(0.028888888888888888,0,0,0.028888888888888888,22.128888888888888,0)" xlink:href="#aY"/><use transform="matrix(0.028888888888888888,0,0,0.028888888888888888,37.72888888888889,0)" xlink:href="#aZ"/><use transform="matrix(0.028888888888888888,0,0,0.028888888888888888,45.06666666666666,0)" xlink:href="#aZ"/></g><path fill="#333" d="M349-501c124 1 174 73 174 201v246c0 37-24 60-62 60s-63-23-63-60v-239c0-71-22-108-89-109-72-1-119 52-119 125v223c0 37-25 60-63 60S65-17 65-54v-387c0-35 26-59 63-58 44 0 66 33 59 83 30-50 86-85 162-85" id="ba"/><path fill="#333" d="M288 8C130 8 38-89 38-247s93-254 250-254 249 96 249 254S446 8 288 8zm-1-97c89-1 126-63 125-158 1-94-37-157-124-158-87 1-126 64-125 158-1 95 36 156 124 158" id="bb"/><g id="p"><use transform="matrix(0.028888888888888888,0,0,0.028888888888888888,0,0)" xlink:href="#aK"/><use transform="matrix(0.028888888888888888,0,0,0.028888888888888888,18.43111111111111,0)" xlink:href="#aI"/><use transform="matrix(0.028888888888888888,0,0,0.028888888888888888,33.77111111111111,0)" xlink:href="#ba"/><use transform="matrix(0.028888888888888888,0,0,0.028888888888888888,50.67111111111111,0)" xlink:href="#aJ"/><use transform="matrix(0.028888888888888888,0,0,0.028888888888888888,64.68222222222222,0)" xlink:href="#bb"/><use transform="matrix(0.028888888888888888,0,0,0.028888888888888888,81.29333333333334,0)" xlink:href="#aL"/></g><path fill="#333" d="M136-31C112 38-5-6 28-77l276-593c16-53 110-51 134 0L715-77c36 66-75 117-107 46l-60-134H196zm104-234h264L372-562" id="bc"/><path fill="#333" d="M15-421c-33-66 81-112 112-43l140 309 139-308c20-67 138-27 105 42L238 151c-24 67-137 26-105-42l68-143" id="bd"/><g id="q"><use transform="matrix(0.028888888888888888,0,0,0.028888888888888888,0,0)" xlink:href="#bc"/><use transform="matrix(0.028888888888888888,0,0,0.028888888888888888,21.435555555555556,0)" xlink:href="#aL"/><use transform="matrix(0.028888888888888888,0,0,0.028888888888888888,32.5,0)" xlink:href="#aL"/><use transform="matrix(0.028888888888888888,0,0,0.028888888888888888,43.50666666666666,0)" xlink:href="#aY"/><use transform="matrix(0.028888888888888888,0,0,0.028888888888888888,59.10666666666666,0)" xlink:href="#bd"/></g><path fill="#333" d="M702-710c37-1 63 26 62 64v592c1 36-23 60-58 60s-57-24-56-60v-412L480-144c-13 34-55 57-92 33-9-7-18-18-26-33L191-461v407c1 35-22 61-57 60-35 0-57-24-56-60v-592c-1-38 24-65 61-64 26 0 46 14 61 43l222 423 221-423c15-29 34-43 59-43" id="be"/><path fill="#333" d="M366-4C179 41 38-60 38-244c0-183 141-290 330-246 43 13 100 34 101 83 1 26-14 49-38 49-52-7-75-48-135-45-88 1-130 63-129 157-1 93 41 156 129 156 59 2 85-39 136-46 34-1 48 49 30 78-21 27-58 42-96 54" id="bf"/><path fill="#333" d="M365-442c0 64-82 44-141 47v227c-1 60 35 81 95 81 33 0 50 17 50 45 0 46-53 50-102 45C155-7 99-65 99-177v-218c-52 1-106 5-106-47s54-49 106-47v-92c0-36 26-60 63-59 36-1 63 23 62 59v92c59 3 141-17 141 47" id="bg"/><g id="r"><use transform="matrix(0.028888888888888888,0,0,0.028888888888888888,0,0)" xlink:href="#be"/><use transform="matrix(0.028888888888888888,0,0,0.028888888888888888,24.295555555555556,0)" xlink:href="#aF"/><use transform="matrix(0.028888888888888888,0,0,0.028888888888888888,31.633333333333333,0)" xlink:href="#bf"/><use transform="matrix(0.028888888888888888,0,0,0.028888888888888888,45.73111111111111,0)" xlink:href="#aL"/><use transform="matrix(0.028888888888888888,0,0,0.028888888888888888,56.50666666666666,0)" xlink:href="#bb"/><use transform="matrix(0.028888888888888888,0,0,0.028888888888888888,73.11777777777777,0)" xlink:href="#bf"/><use transform="matrix(0.028888888888888888,0,0,0.028888888888888888,87.21555555555555,0)" xlink:href="#bb"/><use transform="matrix(0.028888888888888888,0,0,0.028888888888888888,103.82666666666667,0)" xlink:href="#ba"/><use transform="matrix(0.028888888888888888,0,0,0.028888888888888888,120.72666666666666,0)" xlink:href="#bg"/><use transform="matrix(0.028888888888888888,0,0,0.028888888888888888,131.38666666666666,0)" xlink:href="#aL"/><use transform="matrix(0.028888888888888888,0,0,0.028888888888888888,142.1622222222222,0)" xlink:href="#bb"/><use transform="matrix(0.028888888888888888,0,0,0.028888888888888888,158.7733333333333,0)" xlink:href="#aZ"/><use transform="matrix(0.028888888888888888,0,0,0.028888888888888888,166.1111111111111,0)" xlink:href="#aZ"/><use transform="matrix(0.028888888888888888,0,0,0.028888888888888888,173.44888888888886,0)" xlink:href="#aI"/><use transform="matrix(0.028888888888888888,0,0,0.028888888888888888,188.78888888888886,0)" xlink:href="#aL"/></g><path fill="#333" d="M39-630c-36-75 89-116 116-41l170 489 175-486c9-35 60-58 94-32 11 8 18 19 23 33l170 491 173-495c8-24 28-39 57-40 41-1 70 36 54 81L856-35c-14 54-115 54-134 0L556-506 387-35c-14 53-113 55-133 0" id="bh"/><g id="s"><use transform="matrix(0.026666666666666665,0,0,0.026666666666666665,0,0)" xlink:href="#bh"/><use transform="matrix(0.026666666666666665,0,0,0.026666666666666665,28.05333333333333,0)" xlink:href="#aY"/><use transform="matrix(0.026666666666666665,0,0,0.026666666666666665,42.45333333333333,0)" xlink:href="#aF"/><use transform="matrix(0.026666666666666665,0,0,0.026666666666666665,49.78666666666667,0)" xlink:href="#bg"/></g><path fill="#333" d="M162 5c-36 0-63-21-63-59v-341c-51 2-111 3-106-47-5-50 55-49 106-47-3-140 78-213 215-217 46-1 71 6 73 44 7 72-118 32-142 78-18 20-23 55-21 95 58 3 141-16 141 47s-83 45-141 47v341c1 38-26 59-62 59" id="bi"/><g id="t"><use transform="matrix(0.026666666666666665,0,0,0.026666666666666665,0,0)" xlink:href="#bi"/><use transform="matrix(0.026666666666666665,0,0,0.026666666666666665,9.413333333333334,0)" xlink:href="#bb"/><use transform="matrix(0.026666666666666665,0,0,0.026666666666666665,24.746666666666666,0)" xlink:href="#aL"/></g><path fill="#333" d="M451-499c37-1 63 23 63 59v388c1 35-27 59-63 58-45 0-65-31-59-81-27 49-78 82-150 83C122 8 62-59 62-194v-246c-1-36 26-60 62-59 37-1 63 23 63 59v247c0 66 23 101 87 102 70 1 115-54 115-126v-223c-1-36 26-60 62-59" id="bj"/><g id="u"><use transform="matrix(0.026666666666666665,0,0,0.026666666666666665,0,0)" xlink:href="#bj"/><use transform="matrix(0.026666666666666665,0,0,0.026666666666666665,15.44,0)" xlink:href="#aJ"/><use transform="matrix(0.026666666666666665,0,0,0.026666666666666665,28.37333333333333,0)" xlink:href="#aI"/><use transform="matrix(0.026666666666666665,0,0,0.026666666666666665,42.53333333333333,0)" xlink:href="#aL"/></g><g id="v"><use transform="matrix(0.026666666666666665,0,0,0.026666666666666665,0,0)" xlink:href="#bg"/><use transform="matrix(0.026666666666666665,0,0,0.026666666666666665,9.84,0)" xlink:href="#bb"/></g><path fill="#333" d="M346-501c143 6 217 109 217 257C563-97 489 3 346 8c-73 0-129-34-156-83v204c0 35-26 57-62 56-36 1-64-23-63-58v-567c0-36 25-60 61-59 46 0 69 32 62 84 26-51 83-86 158-86zM313-89c85-1 126-65 125-155 1-92-39-159-125-160-87 1-126 65-125 158-1 92 39 156 125 157" id="bk"/><path fill="#333" d="M404-480c50-57 136 28 79 81L326-253 500-97c59 47-18 137-76 84L190-225v171c1 38-27 59-63 59S65-16 65-54v-597c-1-38 26-59 62-59s63 21 63 59v376" id="bl"/><g id="w"><use transform="matrix(0.026666666666666665,0,0,0.026666666666666665,0,0)" xlink:href="#bk"/><use transform="matrix(0.026666666666666665,0,0,0.026666666666666665,16.026666666666667,0)" xlink:href="#aF"/><use transform="matrix(0.026666666666666665,0,0,0.026666666666666665,22.8,0)" xlink:href="#bf"/><use transform="matrix(0.026666666666666665,0,0,0.026666666666666665,35.81333333333333,0)" xlink:href="#bl"/></g><g id="x"><use transform="matrix(0.026666666666666665,0,0,0.026666666666666665,0,0)" xlink:href="#bj"/><use transform="matrix(0.026666666666666665,0,0,0.026666666666666665,15.44,0)" xlink:href="#bk"/></g><g id="y"><use transform="matrix(0.026666666666666665,0,0,0.026666666666666665,0,0)" xlink:href="#bk"/><use transform="matrix(0.026666666666666665,0,0,0.026666666666666665,16.026666666666667,0)" xlink:href="#aF"/><use transform="matrix(0.026666666666666665,0,0,0.026666666666666665,22.8,0)" xlink:href="#aI"/><use transform="matrix(0.026666666666666665,0,0,0.026666666666666665,36.96,0)" xlink:href="#bf"/><use transform="matrix(0.026666666666666665,0,0,0.026666666666666665,49.97333333333333,0)" xlink:href="#aI"/></g><g id="z"><use transform="matrix(0.026666666666666665,0,0,0.026666666666666665,0,0)" xlink:href="#bk"/><use transform="matrix(0.026666666666666665,0,0,0.026666666666666665,16.026666666666667,0)" xlink:href="#aZ"/><use transform="matrix(0.026666666666666665,0,0,0.026666666666666665,22.8,0)" xlink:href="#aY"/><use transform="matrix(0.026666666666666665,0,0,0.026666666666666665,37.2,0)" xlink:href="#bf"/><use transform="matrix(0.026666666666666665,0,0,0.026666666666666665,50.21333333333334,0)" xlink:href="#aI"/></g><path fill="#fff" d="M367 9C175 10 72-93 72-285v-361c-1-38 25-65 63-64 38-1 64 26 63 64v368c-1 117 55 184 169 184 113 0 169-68 168-184v-368c-1-38 25-65 63-64 38-1 64 26 63 64v361C662-95 558 10 367 9" id="bm"/><path fill="#fff" d="M432-211C492-84 379 8 242 8 169 8 113-11 66-35c-40-21-44-96 6-99 57 11 99 53 173 47 77 15 128-76 45-99-101-32-240-34-240-161 0-159 234-190 352-113 21 13 32 31 32 53 1 24-16 47-38 47-56-10-84-52-150-48-62-10-112 63-58 94 65 37 214 37 244 103" id="bn"/><path fill="#fff" d="M452-134c24 0 39 22 38 48-2 49-69 69-114 82C188 44 32-62 38-246c3-153 88-255 238-255 141 0 215 93 218 236 0 29-13 43-38 43H161c8 87 45 133 135 134 63 4 107-36 156-46zm-65-155c-2-75-36-123-108-124-74 1-111 51-118 124h226" id="bo"/><path fill="#fff" d="M126-499c51-1 64 40 58 96 24-58 79-88 154-96 54-6 71 58 43 90-11 14-49 18-77 20-73 6-114 51-114 125v210c1 38-27 60-63 60S65-16 65-54v-387c-1-36 26-58 61-58" id="bp"/><g id="A"><use transform="matrix(0.026666666666666665,0,0,0.026666666666666665,0,0)" xlink:href="#bm"/><use transform="matrix(0.026666666666666665,0,0,0.026666666666666665,19.546666666666667,0)" xlink:href="#bn"/><use transform="matrix(0.026666666666666665,0,0,0.026666666666666665,32.48,0)" xlink:href="#bo"/><use transform="matrix(0.026666666666666665,0,0,0.026666666666666665,46.63999999999999,0)" xlink:href="#bp"/></g><path fill="#fff" d="M366-4C179 41 38-60 38-244c0-183 141-290 330-246 43 13 100 34 101 83 1 26-14 49-38 49-52-7-75-48-135-45-88 1-130 63-129 157-1 93 41 156 129 156 59 2 85-39 136-46 34-1 48 49 30 78-21 27-58 42-96 54" id="bq"/><path fill="#fff" d="M288 8C130 8 38-89 38-247s93-254 250-254 249 96 249 254S446 8 288 8zm-1-97c89-1 126-63 125-158 1-94-37-157-124-158-87 1-126 64-125 158-1 95 36 156 124 158" id="br"/><path fill="#fff" d="M349-501c124 1 174 73 174 201v246c0 37-24 60-62 60s-63-23-63-60v-239c0-71-22-108-89-109-72-1-119 52-119 125v223c0 37-25 60-63 60S65-17 65-54v-387c0-35 26-59 63-58 44 0 66 33 59 83 30-50 86-85 162-85" id="bs"/><path fill="#fff" d="M162 5c-36 0-63-21-63-59v-341c-51 2-111 3-106-47-5-50 55-49 106-47-3-140 78-213 215-217 46-1 71 6 73 44 7 72-118 32-142 78-18 20-23 55-21 95 58 3 141-16 141 47s-83 45-141 47v341c1 38-26 59-62 59" id="bt"/><path fill="#fff" d="M127 6C91 6 65-16 65-54v-386c-1-38 26-59 62-59s63 21 63 59v386c1 38-27 60-63 60zm0-594c-43 1-74-26-74-67s31-67 74-66c42-1 75 25 74 66 0 41-31 68-74 67" id="bu"/><path fill="#fff" d="M646-501c118 3 166 71 165 201v246c1 38-26 60-63 60-36 0-62-22-62-60v-246c0-67-19-100-79-102-68 0-107 53-107 125v223c1 38-26 60-62 60s-63-22-63-60v-246c0-67-19-100-79-102-69 0-106 53-106 125v223c1 38-27 60-63 60S65-16 65-54v-387c-1-37 27-58 63-58 44 0 66 30 59 80 28-49 77-81 150-82 73 0 122 31 147 92 26-52 86-92 162-92" id="bv"/><g id="B"><use transform="matrix(0.026666666666666665,0,0,0.026666666666666665,0,0)" xlink:href="#bq"/><use transform="matrix(0.026666666666666665,0,0,0.026666666666666665,13.013333333333332,0)" xlink:href="#br"/><use transform="matrix(0.026666666666666665,0,0,0.026666666666666665,28.346666666666664,0)" xlink:href="#bs"/><use transform="matrix(0.026666666666666665,0,0,0.026666666666666665,43.946666666666665,0)" xlink:href="#bt"/><use transform="matrix(0.026666666666666665,0,0,0.026666666666666665,55.519999999999996,0)" xlink:href="#bu"/><use transform="matrix(0.026666666666666665,0,0,0.026666666666666665,62.29333333333333,0)" xlink:href="#bp"/><use transform="matrix(0.026666666666666665,0,0,0.026666666666666665,72.50666666666666,0)" xlink:href="#bv"/><use transform="matrix(0.026666666666666665,0,0,0.026666666666666665,95.78666666666666,0)" xlink:href="#bn"/></g><path fill="#fff" d="M15-421c-32-67 81-111 112-43l140 309 139-308c19-69 138-28 105 42L326-34c-15 50-102 48-125 0" id="bw"/><g id="C"><use transform="matrix(0.026666666666666665,0,0,0.026666666666666665,0,0)" xlink:href="#bv"/><use transform="matrix(0.026666666666666665,0,0,0.026666666666666665,23.279999999999998,0)" xlink:href="#br"/><use transform="matrix(0.026666666666666665,0,0,0.026666666666666665,38.39999999999999,0)" xlink:href="#bw"/><use transform="matrix(0.026666666666666665,0,0,0.026666666666666665,52.213333333333324,0)" xlink:href="#bo"/></g><path fill="#333" d="M527-688c43-62 139 14 89 75L407-358 624-92c55 54-39 138-89 76L332-268 128-16C84 44-11-31 39-92l218-266L48-613c-53-54 39-137 89-75l195 241" id="bx"/><path fill="#333" d="M20-613c-53-54 38-136 87-75l205 254 204-254c43-62 136 15 87 75L376-336v277c1 40-26 65-64 65-39 0-66-25-65-65v-277" id="by"/><g id="D"><use transform="matrix(0.028888888888888888,0,0,0.028888888888888888,0,0)" xlink:href="#bx"/><use transform="matrix(0.028888888888888888,0,0,0.028888888888888888,19.037777777777777,0)" xlink:href="#by"/></g><path fill="#333" d="M613-381c30-1 51 20 51 49v215C674-14 589-13 510 1 235 49 50-89 54-353c3-224 124-357 347-361 94 0 168 30 231 76 40 29 19 125-38 96-62-32-101-69-189-67-153 1-221 96-220 256 0 173 76 260 228 260 45 0 91-6 136-19v-177c-63-7-164 24-164-46 0-30 20-46 51-46h177" id="bz"/><path fill="#333" d="M224-722c13-64 117-37 96 29L88 34C77 97-29 72-8 5" id="bA"/><path fill="#333" d="M633-497c0 117-73 185-178 202 46 12 69 37 94 75l91 139c52 64-61 126-105 58L402-225c-25-38-44-58-101-58h-98v224c1 39-24 65-63 65S75-20 76-59v-585c0-38 24-61 62-61h250c150-1 244 65 245 208zM370-382c90 0 139-28 141-112-2-85-51-110-141-111H202v223h168" id="bB"/><path fill="#333" d="M140 6c-38 1-65-27-64-65v-585c0-38 24-61 62-61h351c41 0 61 17 61 52 0 34-20 51-61 51H203v192h266c41 0 61 17 61 52 0 34-20 51-61 51H203v248c1 38-25 66-63 65" id="bC"/><path fill="#333" d="M140 6c-38 1-65-27-64-65v-587c-1-38 26-65 64-64 39-1 65 25 65 64v587c0 38-26 66-65 65" id="bD"/><path fill="#333" d="M138 0c-38 0-62-23-62-61v-583c0-38 24-61 62-61h198c226-2 366 128 364 352C702-128 562 2 336 0H138zm433-353c0-165-81-247-243-247H205v495h123c162 0 243-83 243-248" id="bE"/><g id="E"><use transform="matrix(0.028888888888888888,0,0,0.028888888888888888,0,0)" xlink:href="#bz"/><use transform="matrix(0.028888888888888888,0,0,0.028888888888888888,21.175555555555555,0)" xlink:href="#aY"/><use transform="matrix(0.028888888888888888,0,0,0.028888888888888888,36.775555555555556,0)" xlink:href="#ba"/><use transform="matrix(0.028888888888888888,0,0,0.028888888888888888,53.675555555555555,0)" xlink:href="#bg"/><use transform="matrix(0.028888888888888888,0,0,0.028888888888888888,64.33555555555556,0)" xlink:href="#aL"/><use transform="matrix(0.028888888888888888,0,0,0.028888888888888888,76.26666666666667,0)" xlink:href="#bd"/><use transform="matrix(0.028888888888888888,0,0,0.028888888888888888,90.79777777777778,0)" xlink:href="#bA"/><use transform="matrix(0.028888888888888888,0,0,0.028888888888888888,99.84,0)" xlink:href="#bB"/><use transform="matrix(0.028888888888888888,0,0,0.028888888888888888,119.9177777777778,0)" xlink:href="#bC"/><use transform="matrix(0.028888888888888888,0,0,0.028888888888888888,136.2688888888889,0)" xlink:href="#bD"/><use transform="matrix(0.028888888888888888,0,0,0.028888888888888888,144.38666666666668,0)" xlink:href="#bE"/></g><g id="F"><use transform="matrix(0.028888888888888888,0,0,0.028888888888888888,0,0)" xlink:href="#be"/><use transform="matrix(0.028888888888888888,0,0,0.028888888888888888,24.295555555555556,0)" xlink:href="#aF"/><use transform="matrix(0.028888888888888888,0,0,0.028888888888888888,31.633333333333333,0)" xlink:href="#bf"/><use transform="matrix(0.028888888888888888,0,0,0.028888888888888888,45.73111111111111,0)" xlink:href="#aL"/><use transform="matrix(0.028888888888888888,0,0,0.028888888888888888,56.50666666666666,0)" xlink:href="#bb"/><use transform="matrix(0.028888888888888888,0,0,0.028888888888888888,73.11777777777777,0)" xlink:href="#bf"/><use transform="matrix(0.028888888888888888,0,0,0.028888888888888888,87.21555555555555,0)" xlink:href="#bb"/><use transform="matrix(0.028888888888888888,0,0,0.028888888888888888,103.82666666666667,0)" xlink:href="#ba"/><use transform="matrix(0.028888888888888888,0,0,0.028888888888888888,120.72666666666666,0)" xlink:href="#bg"/><use transform="matrix(0.028888888888888888,0,0,0.028888888888888888,131.38666666666666,0)" xlink:href="#aL"/><use transform="matrix(0.028888888888888888,0,0,0.028888888888888888,142.1622222222222,0)" xlink:href="#bb"/><use transform="matrix(0.028888888888888888,0,0,0.028888888888888888,158.7733333333333,0)" xlink:href="#aZ"/><use transform="matrix(0.028888888888888888,0,0,0.028888888888888888,166.1111111111111,0)" xlink:href="#aZ"/><use transform="matrix(0.028888888888888888,0,0,0.028888888888888888,173.44888888888886,0)" xlink:href="#aI"/><use transform="matrix(0.028888888888888888,0,0,0.028888888888888888,188.78888888888886,0)" xlink:href="#aL"/></g><path fill="#d1bcd2" d="M140 6c-39 0-65-26-64-65v-585c0-38 24-61 62-61h246c144-2 240 75 239 215 1 140-95 216-239 216H205v215c1 39-26 66-65 65zm361-495c0-77-44-116-133-116H205v232h163c89 0 133-39 133-116" id="bF"/><path fill="#d1bcd2" d="M277-501c137 0 201 67 201 204v244c0 36-24 58-60 58-42 0-65-32-59-80-20 49-71 83-138 83C122 5 46-48 46-145c0-149 151-140 313-144 4-76-16-118-89-117-63-1-114 36-168 46-36 6-54-49-32-76 37-46 126-63 207-65zM246-82c74 0 121-59 113-141-93 5-183-11-191 68-1 42 36 74 78 73" id="bG"/><path fill="#d1bcd2" d="M365-442c0 64-82 44-141 47v227c-1 60 35 81 95 81 33 0 50 17 50 45 0 46-53 50-102 45C155-7 99-65 99-177v-218c-52 1-106 5-106-47s54-49 106-47v-92c0-36 26-60 63-59 36-1 63 23 62 59v92c59 3 141-17 141 47" id="bH"/><path fill="#d1bcd2" d="M190-421c30-48 86-80 161-80 115 0 172 67 172 201v246c0 37-24 60-62 60s-63-23-63-60v-246c0-68-24-101-89-102-72-1-119 52-119 125v223c0 37-25 60-63 60S65-17 65-54v-598c-1-35 27-59 63-58 36-1 62 21 62 56v233" id="bI"/><path fill="#d1bcd2" d="M346-501c143 6 217 109 217 257C563-97 489 3 346 8c-73 0-129-34-156-83v204c0 35-26 57-62 56-36 1-64-23-63-58v-567c0-36 25-60 61-59 46 0 69 32 62 84 26-51 83-86 158-86zM313-89c85-1 126-65 125-155 1-92-39-159-125-160-87 1-126 65-125 158-1 92 39 156 125 157" id="bJ"/><path fill="#d1bcd2" d="M127 6C91 6 65-16 65-54v-597c-1-38 26-59 62-59s63 21 63 59v597c1 38-27 60-63 60" id="bK"/><path fill="#d1bcd2" d="M349-501c124 1 174 73 174 201v246c0 37-24 60-62 60s-63-23-63-60v-239c0-71-22-108-89-109-72-1-119 52-119 125v223c0 37-25 60-63 60S65-17 65-54v-387c0-35 26-59 63-58 44 0 66 33 59 83 30-50 86-85 162-85" id="bL"/><path fill="#d1bcd2" d="M127 6C91 6 65-16 65-54v-386c-1-38 26-59 62-59s63 21 63 59v386c1 38-27 60-63 60zm0-594c-43 1-74-26-74-67s31-67 74-66c42-1 75 25 74 66 0 41-31 68-74 67" id="bM"/><path fill="#d1bcd2" d="M479-499c36-1 63 23 62 59v395c0 158-92 234-253 233-73 0-133-14-182-41-25-15-37-32-37-53-1-26 14-48 38-48 64 13 104 46 179 46 113 0 141-74 131-192-27 51-84 86-160 86C117-19 38-114 38-257c0-144 78-239 219-244 75 0 133 35 160 86-6-52 16-84 62-84zM290-111c83 0 128-60 127-146 1-87-44-147-127-147-82 0-128 61-127 147-1 85 45 146 127 146" id="bN"/><path fill="#d1bcd2" d="M122-144c51 1 77 41 76 98 0 63-24 116-66 164-30 35-90-10-55-44 20-21 33-45 39-72-37-3-67-32-66-71-1-41 31-76 72-75" id="bO"/><g id="G"><use transform="matrix(0.031111111111111103,0,0,0.031111111111111103,0,0)" xlink:href="#bF"/><use transform="matrix(0.031111111111111103,0,0,0.031111111111111103,20.128888888888884,0)" xlink:href="#bG"/><use transform="matrix(0.031111111111111103,0,0,0.031111111111111103,36.92888888888888,0)" xlink:href="#bH"/><use transform="matrix(0.031111111111111103,0,0,0.031111111111111103,48.408888888888875,0)" xlink:href="#bI"/><use transform="matrix(0.031111111111111103,0,0,0.031111111111111103,66.60888888888887,0)" xlink:href="#bJ"/><use transform="matrix(0.031111111111111103,0,0,0.031111111111111103,85.30666666666664,0)" xlink:href="#bK"/><use transform="matrix(0.031111111111111103,0,0,0.031111111111111103,93.20888888888886,0)" xlink:href="#bG"/><use transform="matrix(0.031111111111111103,0,0,0.031111111111111103,110.00888888888886,0)" xlink:href="#bL"/><use transform="matrix(0.031111111111111103,0,0,0.031111111111111103,128.20888888888885,0)" xlink:href="#bL"/><use transform="matrix(0.031111111111111103,0,0,0.031111111111111103,146.40888888888884,0)" xlink:href="#bM"/><use transform="matrix(0.031111111111111103,0,0,0.031111111111111103,154.31111111111105,0)" xlink:href="#bL"/><use transform="matrix(0.031111111111111103,0,0,0.031111111111111103,172.51111111111103,0)" xlink:href="#bN"/><use transform="matrix(0.031111111111111103,0,0,0.031111111111111103,191.33333333333326,0)" xlink:href="#bO"/></g><path fill="#d1bcd2" d="M633-497c0 117-73 185-178 202 46 12 69 37 94 75l91 139c52 64-61 126-105 58L402-225c-25-38-44-58-101-58h-98v224c1 39-24 65-63 65S75-20 76-59v-585c0-38 24-61 62-61h250c150-1 244 65 245 208zM370-382c90 0 139-28 141-112-2-85-51-110-141-111H202v223h168" id="bP"/><path fill="#d1bcd2" d="M140 6c-38 1-65-27-64-65v-585c0-38 24-61 62-61h351c41 0 61 17 61 52 0 34-20 51-61 51H203v192h266c41 0 61 17 61 52 0 34-20 51-61 51H203v248c1 38-25 66-63 65" id="bQ"/><path fill="#d1bcd2" d="M140 6c-38 1-65-27-64-65v-587c-1-38 26-65 64-64 39-1 65 25 65 64v587c0 38-26 66-65 65" id="bR"/><path fill="#d1bcd2" d="M138 0c-38 0-62-23-62-61v-583c0-38 24-61 62-61h198c226-2 366 128 364 352C702-128 562 2 336 0H138zm433-353c0-165-81-247-243-247H205v495h123c162 0 243-83 243-248" id="bS"/><g id="I"><use transform="matrix(0.031111111111111103,0,0,0.031111111111111103,0,0)" xlink:href="#bP"/><use transform="matrix(0.031111111111111103,0,0,0.031111111111111103,21.622222222222216,0)" xlink:href="#bQ"/><use transform="matrix(0.031111111111111103,0,0,0.031111111111111103,39.231111111111105,0)" xlink:href="#bR"/><use transform="matrix(0.031111111111111103,0,0,0.031111111111111103,47.97333333333332,0)" xlink:href="#bS"/></g><path fill="#d1bcd2" d="M452-134c24 0 39 22 38 48-2 49-69 69-114 82C188 44 32-62 38-246c3-153 88-255 238-255 141 0 215 93 218 236 0 29-13 43-38 43H161c8 87 45 133 135 134 63 4 107-36 156-46zm-65-155c-2-75-36-123-108-124-74 1-111 51-118 124h226" id="bT"/><path fill="#d1bcd2" d="M473-710c36-1 65 23 64 58v598c1 36-26 60-62 59-46 0-69-32-62-84-26 51-83 87-158 87C112 2 38-101 38-249c0-147 74-247 217-252 74 0 130 34 157 84v-237c0-34 26-57 61-56zM288-89c87-1 126-65 125-158 1-92-38-156-124-157-86 1-127 63-126 155-1 92 39 159 125 160" id="bU"/><path fill="#d1bcd2" d="M432-211C492-84 379 8 242 8 169 8 113-11 66-35c-40-21-44-96 6-99 57 11 99 53 173 47 77 15 128-76 45-99-101-32-240-34-240-161 0-159 234-190 352-113 21 13 32 31 32 53 1 24-16 47-38 47-56-10-84-52-150-48-62-10-112 63-58 94 65 37 214 37 244 103" id="bV"/><g id="J"><use transform="matrix(0.031111111111111103,0,0,0.031111111111111103,0,0)" xlink:href="#bP"/><use transform="matrix(0.031111111111111103,0,0,0.031111111111111103,21.622222222222216,0)" xlink:href="#bT"/><use transform="matrix(0.031111111111111103,0,0,0.031111111111111103,38.142222222222216,0)" xlink:href="#bG"/><use transform="matrix(0.031111111111111103,0,0,0.031111111111111103,54.94222222222221,0)" xlink:href="#bU"/><use transform="matrix(0.031111111111111103,0,0,0.031111111111111103,73.63999999999999,0)" xlink:href="#bM"/><use transform="matrix(0.031111111111111103,0,0,0.031111111111111103,81.54222222222221,0)" xlink:href="#bL"/><use transform="matrix(0.031111111111111103,0,0,0.031111111111111103,99.74222222222221,0)" xlink:href="#bN"/><use transform="matrix(0.031111111111111103,0,0,0.031111111111111103,118.56444444444443,0)" xlink:href="#bV"/></g><path fill="#d1bcd2" d="M613-381c30-1 51 20 51 49v215C674-14 589-13 510 1 235 49 50-89 54-353c3-224 124-357 347-361 94 0 168 30 231 76 40 29 19 125-38 96-62-32-101-69-189-67-153 1-221 96-220 256 0 173 76 260 228 260 45 0 91-6 136-19v-177c-63-7-164 24-164-46 0-30 20-46 51-46h177" id="bW"/><path fill="#d1bcd2" d="M646-501c118 3 166 71 165 201v246c1 38-26 60-63 60-36 0-62-22-62-60v-246c0-67-19-100-79-102-68 0-107 53-107 125v223c1 38-26 60-62 60s-63-22-63-60v-246c0-67-19-100-79-102-69 0-106 53-106 125v223c1 38-27 60-63 60S65-16 65-54v-387c-1-37 27-58 63-58 44 0 66 30 59 80 28-49 77-81 150-82 73 0 122 31 147 92 26-52 86-92 162-92" id="bX"/><g id="K"><use transform="matrix(0.031111111111111103,0,0,0.031111111111111103,0,0)" xlink:href="#bW"/><use transform="matrix(0.031111111111111103,0,0,0.031111111111111103,22.80444444444444,0)" xlink:href="#bG"/><use transform="matrix(0.031111111111111103,0,0,0.031111111111111103,39.60444444444444,0)" xlink:href="#bX"/><use transform="matrix(0.031111111111111103,0,0,0.031111111111111103,66.76444444444444,0)" xlink:href="#bT"/></g><path fill="#d1bcd2" d="M595-201C600 42 215 49 63-67 28-94 36-167 82-167c49 0 87 49 131 59 97 23 258 24 255-86 0-25-12-44-36-58-51-31-209-55-265-84-65-34-111-73-111-163 0-144 123-211 273-215 106 0 197 32 251 98 18 38-10 96-54 75-65-31-102-73-197-70-80-1-146 31-147 104 0 27 12 48 35 63 49 34 207 58 263 86 64 32 113 70 115 157" id="bY"/><g id="L"><use transform="matrix(0.031111111111111103,0,0,0.031111111111111103,0,0)" xlink:href="#bY"/><use transform="matrix(0.031111111111111103,0,0,0.031111111111111103,19.631111111111107,0)" xlink:href="#bH"/><use transform="matrix(0.031111111111111103,0,0,0.031111111111111103,31.111111111111104,0)" xlink:href="#bG"/><use transform="matrix(0.031111111111111103,0,0,0.031111111111111103,47.9111111111111,0)" xlink:href="#bH"/><use transform="matrix(0.031111111111111103,0,0,0.031111111111111103,59.391111111111094,0)" xlink:href="#bT"/></g><g id="M"><use transform="matrix(0.026666666666666665,0,0,0.026666666666666665,0,0)" xlink:href="#bk"/><use transform="matrix(0.026666666666666665,0,0,0.026666666666666665,16.026666666666667,0)" xlink:href="#aF"/><use transform="matrix(0.026666666666666665,0,0,0.026666666666666665,22.8,0)" xlink:href="#aI"/><use transform="matrix(0.026666666666666665,0,0,0.026666666666666665,36.96,0)" xlink:href="#bf"/><use transform="matrix(0.026666666666666665,0,0,0.026666666666666665,49.97333333333333,0)" xlink:href="#aI"/></g><g id="N"><use transform="matrix(0.026666666666666665,0,0,0.026666666666666665,0,0)" xlink:href="#aL"/><use transform="matrix(0.026666666666666665,0,0,0.026666666666666665,9.946666666666665,0)" xlink:href="#aI"/><use transform="matrix(0.026666666666666665,0,0,0.026666666666666665,23.919999999999995,0)" xlink:href="#bg"/><use transform="matrix(0.026666666666666665,0,0,0.026666666666666665,33.75999999999999,0)" xlink:href="#bj"/><use transform="matrix(0.026666666666666665,0,0,0.026666666666666665,49.19999999999999,0)" xlink:href="#aL"/><use transform="matrix(0.026666666666666665,0,0,0.026666666666666665,59.41333333333332,0)" xlink:href="#ba"/></g><g id="O"><use transform="matrix(0.026666666666666665,0,0,0.026666666666666665,0,0)" xlink:href="#bg"/><use transform="matrix(0.026666666666666665,0,0,0.026666666666666665,9.84,0)" xlink:href="#bb"/></g><path fill="#333" d="M479-499c36-1 63 23 62 59v395c0 158-92 234-253 233-73 0-133-14-182-41-25-15-37-32-37-53-1-26 14-48 38-48 64 13 104 46 179 46 113 0 141-74 131-192-27 51-84 86-160 86C117-19 38-114 38-257c0-144 78-239 219-244 75 0 133 35 160 86-6-52 16-84 62-84zM290-111c83 0 128-60 127-146 1-87-44-147-127-147-82 0-128 61-127 147-1 85 45 146 127 146" id="bZ"/><g id="P"><use transform="matrix(0.026666666666666665,0,0,0.026666666666666665,0,0)" xlink:href="#bb"/><use transform="matrix(0.026666666666666665,0,0,0.026666666666666665,15.333333333333332,0)" xlink:href="#aL"/><use transform="matrix(0.026666666666666665,0,0,0.026666666666666665,25.546666666666667,0)" xlink:href="#aF"/><use transform="matrix(0.026666666666666665,0,0,0.026666666666666665,32.32,0)" xlink:href="#bZ"/><use transform="matrix(0.026666666666666665,0,0,0.026666666666666665,48.45333333333333,0)" xlink:href="#aF"/><use transform="matrix(0.026666666666666665,0,0,0.026666666666666665,55.22666666666667,0)" xlink:href="#ba"/><use transform="matrix(0.026666666666666665,0,0,0.026666666666666665,70.82666666666667,0)" xlink:href="#aY"/><use transform="matrix(0.026666666666666665,0,0,0.026666666666666665,85.22666666666666,0)" xlink:href="#aZ"/></g><g id="Q"><use transform="matrix(0.026666666666666665,0,0,0.026666666666666665,0,0)" xlink:href="#bf"/><use transform="matrix(0.026666666666666665,0,0,0.026666666666666665,13.013333333333332,0)" xlink:href="#aI"/><use transform="matrix(0.026666666666666665,0,0,0.026666666666666665,27.173333333333332,0)" xlink:href="#aZ"/><use transform="matrix(0.026666666666666665,0,0,0.026666666666666665,33.946666666666665,0)" xlink:href="#aZ"/></g><path fill="#63903e" d="M140 6c-38 1-65-27-64-65v-587c-1-38 26-65 64-64 39-1 65 25 65 64v587c0 38-26 66-65 65" id="ca"/><path fill="#63903e" d="M349-501c124 1 174 73 174 201v246c0 37-24 60-62 60s-63-23-63-60v-239c0-71-22-108-89-109-72-1-119 52-119 125v223c0 37-25 60-63 60S65-17 65-54v-387c0-35 26-59 63-58 44 0 66 33 59 83 30-50 86-85 162-85" id="cb"/><path fill="#63903e" d="M15-421c-32-67 81-111 112-43l140 309 139-308c19-69 138-28 105 42L326-34c-15 50-102 48-125 0" id="cc"/><path fill="#63903e" d="M277-501c137 0 201 67 201 204v244c0 36-24 58-60 58-42 0-65-32-59-80-20 49-71 83-138 83C122 5 46-48 46-145c0-149 151-140 313-144 4-76-16-118-89-117-63-1-114 36-168 46-36 6-54-49-32-76 37-46 126-63 207-65zM246-82c74 0 121-59 113-141-93 5-183-11-191 68-1 42 36 74 78 73" id="cd"/><path fill="#63903e" d="M127 6C91 6 65-16 65-54v-597c-1-38 26-59 62-59s63 21 63 59v597c1 38-27 60-63 60" id="ce"/><path fill="#63903e" d="M127 6C91 6 65-16 65-54v-386c-1-38 26-59 62-59s63 21 63 59v386c1 38-27 60-63 60zm0-594c-43 1-74-26-74-67s31-67 74-66c42-1 75 25 74 66 0 41-31 68-74 67" id="cf"/><path fill="#63903e" d="M473-710c36-1 65 23 64 58v598c1 36-26 60-62 59-46 0-69-32-62-84-26 51-83 87-158 87C112 2 38-101 38-249c0-147 74-247 217-252 74 0 130 34 157 84v-237c0-34 26-57 61-56zM288-89c87-1 126-65 125-158 1-92-38-156-124-157-86 1-127 63-126 155-1 92 39 159 125 160" id="cg"/><g id="R"><use transform="matrix(0.026666666666666665,0,0,0.026666666666666665,0,0)" xlink:href="#ca"/><use transform="matrix(0.026666666666666665,0,0,0.026666666666666665,7.493333333333333,0)" xlink:href="#cb"/><use transform="matrix(0.026666666666666665,0,0,0.026666666666666665,23.093333333333334,0)" xlink:href="#cc"/><use transform="matrix(0.026666666666666665,0,0,0.026666666666666665,36.93333333333333,0)" xlink:href="#cd"/><use transform="matrix(0.026666666666666665,0,0,0.026666666666666665,51.33333333333333,0)" xlink:href="#ce"/><use transform="matrix(0.026666666666666665,0,0,0.026666666666666665,58.10666666666666,0)" xlink:href="#cf"/><use transform="matrix(0.026666666666666665,0,0,0.026666666666666665,64.88,0)" xlink:href="#cg"/></g><path fill="#63903e" d="M367 9C175 10 72-93 72-285v-361c-1-38 25-65 63-64 38-1 64 26 63 64v368c-1 117 55 184 169 184 113 0 169-68 168-184v-368c-1-38 25-65 63-64 38-1 64 26 63 64v361C662-95 558 10 367 9" id="ch"/><path fill="#63903e" d="M432-211C492-84 379 8 242 8 169 8 113-11 66-35c-40-21-44-96 6-99 57 11 99 53 173 47 77 15 128-76 45-99-101-32-240-34-240-161 0-159 234-190 352-113 21 13 32 31 32 53 1 24-16 47-38 47-56-10-84-52-150-48-62-10-112 63-58 94 65 37 214 37 244 103" id="ci"/><path fill="#63903e" d="M452-134c24 0 39 22 38 48-2 49-69 69-114 82C188 44 32-62 38-246c3-153 88-255 238-255 141 0 215 93 218 236 0 29-13 43-38 43H161c8 87 45 133 135 134 63 4 107-36 156-46zm-65-155c-2-75-36-123-108-124-74 1-111 51-118 124h226" id="cj"/><path fill="#63903e" d="M126-499c51-1 64 40 58 96 24-58 79-88 154-96 54-6 71 58 43 90-11 14-49 18-77 20-73 6-114 51-114 125v210c1 38-27 60-63 60S65-16 65-54v-387c-1-36 26-58 61-58" id="ck"/><g id="S"><use transform="matrix(0.026666666666666665,0,0,0.026666666666666665,0,0)" xlink:href="#ch"/><use transform="matrix(0.026666666666666665,0,0,0.026666666666666665,19.546666666666667,0)" xlink:href="#ci"/><use transform="matrix(0.026666666666666665,0,0,0.026666666666666665,32.48,0)" xlink:href="#cj"/><use transform="matrix(0.026666666666666665,0,0,0.026666666666666665,46.63999999999999,0)" xlink:href="#ck"/></g><path fill="#63903e" d="M702-710c37-1 63 26 62 64v592c1 36-23 60-58 60s-57-24-56-60v-412L480-144c-13 34-55 57-92 33-9-7-18-18-26-33L191-461v407c1 35-22 61-57 60-35 0-57-24-56-60v-592c-1-38 24-65 61-64 26 0 46 14 61 43l222 423 221-423c15-29 34-43 59-43" id="cl"/><path fill="#63903e" d="M288 8C130 8 38-89 38-247s93-254 250-254 249 96 249 254S446 8 288 8zm-1-97c89-1 126-63 125-158 1-94-37-157-124-158-87 1-126 64-125 158-1 95 36 156 124 158" id="cm"/><g id="T"><use transform="matrix(0.026666666666666665,0,0,0.026666666666666665,0,0)" xlink:href="#cl"/><use transform="matrix(0.026666666666666665,0,0,0.026666666666666665,22.426666666666666,0)" xlink:href="#cm"/><use transform="matrix(0.026666666666666665,0,0,0.026666666666666665,37.54666666666667,0)" xlink:href="#cc"/><use transform="matrix(0.026666666666666665,0,0,0.026666666666666665,51.36,0)" xlink:href="#cj"/></g><path fill="#63903e" d="M390 9C171 9 54-133 54-353c0-221 118-361 336-361s335 141 335 361S608 9 390 9zm0-103c141-2 208-107 206-259 2-152-65-256-206-258-142 2-209 106-207 258-2 152 65 257 207 259" id="cn"/><path fill="#63903e" d="M346-501c143 6 217 109 217 257C563-97 489 3 346 8c-73 0-129-34-156-83v204c0 35-26 57-62 56-36 1-64-23-63-58v-567c0-36 25-60 61-59 46 0 69 32 62 84 26-51 83-86 158-86zM313-89c85-1 126-65 125-155 1-92-39-159-125-160-87 1-126 65-125 158-1 92 39 156 125 157" id="co"/><path fill="#63903e" d="M365-442c0 64-82 44-141 47v227c-1 60 35 81 95 81 33 0 50 17 50 45 0 46-53 50-102 45C155-7 99-65 99-177v-218c-52 1-106 5-106-47s54-49 106-47v-92c0-36 26-60 63-59 36-1 63 23 62 59v92c59 3 141-17 141 47" id="cp"/><g id="U"><use transform="matrix(0.026666666666666665,0,0,0.026666666666666665,0,0)" xlink:href="#cn"/><use transform="matrix(0.026666666666666665,0,0,0.026666666666666665,20.773333333333333,0)" xlink:href="#co"/><use transform="matrix(0.026666666666666665,0,0,0.026666666666666665,36.8,0)" xlink:href="#co"/><use transform="matrix(0.026666666666666665,0,0,0.026666666666666665,52.82666666666667,0)" xlink:href="#cm"/><use transform="matrix(0.026666666666666665,0,0,0.026666666666666665,68.16,0)" xlink:href="#cb"/><use transform="matrix(0.026666666666666665,0,0,0.026666666666666665,83.75999999999999,0)" xlink:href="#cj"/><use transform="matrix(0.026666666666666665,0,0,0.026666666666666665,97.91999999999999,0)" xlink:href="#cb"/><use transform="matrix(0.026666666666666665,0,0,0.026666666666666665,113.52,0)" xlink:href="#cp"/></g><g id="V"><use transform="matrix(0.026666666666666665,0,0,0.026666666666666665,0,0)" xlink:href="#cl"/><use transform="matrix(0.026666666666666665,0,0,0.026666666666666665,22.426666666666666,0)" xlink:href="#cd"/><use transform="matrix(0.026666666666666665,0,0,0.026666666666666665,36.82666666666667,0)" xlink:href="#cg"/><use transform="matrix(0.026666666666666665,0,0,0.026666666666666665,52.85333333333334,0)" xlink:href="#cj"/></g></defs></g></svg>